<?xml version="1.0" encoding="UTF-8"?>
<svg id="Livello_2" data-name="Livello 2" xmlns="http://www.w3.org/2000/svg" viewBox="0 0 520 578.82">
  <defs>
    <style>
      .cls-1 {
        fill: none;
        stroke: #fff;
        stroke-miterlimit: 10;
        stroke-width: 20px;
      }
    </style>
  </defs>
  <g id="Livello_1-2" data-name="Livello 1">
    <path class="cls-1" d="M50.01,461.77H469.99c25.17,0,40.01-12.98,40.01-32.06,0-26.5-26.76-50.35-49.82-73.93-17.49-18.28-22.26-55.91-24.11-86.38-2.12-101.75-28.88-171.97-99.63-197.4-9.8-34.45-37.36-62-76.31-62s-66.51,27.56-76.58,62c-70.48,25.44-97.51,95.66-99.36,197.4-2.12,30.47-6.62,68.1-24.38,86.38-22.79,23.58-49.81,47.43-49.81,73.93,0,19.08,15.1,32.06,40.01,32.06Zm129.31,36.04c3.18,38.69,35.77,71.01,80.82,71.01s77.37-32.33,80.82-71.01H179.32Z"/>
  </g>
</svg>