<?xml version="1.0" encoding="UTF-8"?>
<svg id="Livello_2" data-name="Livello 2" xmlns="http://www.w3.org/2000/svg" viewBox="0 0 800 800">
  <defs>
    <style>
      .cls-1 {
        fill: #fff;
      }
    </style>
  </defs>
  <g id="Livello_1-2" data-name="Livello 1">
    <path class="cls-1" d="M400,0C179.1,0,0,167.92,0,375.05c0,94.3,37.2,180.56,98.45,246.46-4.8,54.44-20.8,114.12-38.5,158.91-3.95,9.97,3.65,21.11,13.65,19.4,112.8-19.82,179.85-50.26,209.05-66.12,38.28,10.94,77.73,16.45,117.35,16.4,220.9,0,400-167.92,400-375.05S620.9,0,400,0ZM192.96,453.94c-27.61,0-50-22.39-50-50s22.39-50,50-50,50,22.39,50,50-22.39,50-50,50Zm207.04,0c-27.61,0-50-22.39-50-50s22.39-50,50-50,50,22.39,50,50-22.39,50-50,50Zm207.04,0c-27.61,0-50-22.39-50-50s22.39-50,50-50,50,22.39,50,50-22.39,50-50,50Z"/>
  </g>
</svg>