<?xml version="1.0" encoding="UTF-8"?>
<svg id="Livello_1" data-name="Livello 1" xmlns="http://www.w3.org/2000/svg" viewBox="0 0 800 800">
  <defs>
    <style>
      .cls-1 {
        fill: #ffffff;
      }
    </style>
  </defs>
  <g id="ui-earth-east">
    <path class="cls-1" d="M226.54,522.77c5.07,.06,8.07-5.57,9.53-10.43,5.38-17.98,5.8-37.41,1.2-55.6-2.48,.14-4.97,.28-7.45,.42,2.63,11.14-5.44,23.66-16.68,25.86-1.62,10.72-.05,21.91,4.47,31.77,1.76,3.83,4.7,7.94,8.93,7.98Z"/>
    <path class="cls-1" d="M597.69,476.33c-6.74-1.62-6.42-11.44-10.56-17.01-6.39-8.61-19.91-4.12-29.26,1.11-14.4,8.05-29.38,15.51-43.38,24.25-16.48,10.28-18.11,30.66-20.7,47.94-1.29,8.62-5.89,15.78,1.98,21.25,14.89,10.34,35.86-14.11,50.86-16.34,19.98-2.96,21.15,25.21,33.38,35.76,5.41,4.66,12.94,6.77,19.98,5.58,7.04-1.19,13.46-5.65,17.04-11.82,2.85-11.18,7.71-18.22,14.3-27.73,4.77-6.88,9.77-14.67,8.5-22.94-1.11-7.27-6.76-12.84-11.08-18.8-10.35-14.26-13.7-33.38-8.82-50.31-6.8-.04-9.46,8.65-10.48,15.38-1.03,6.72-5.15,15.27-11.77,13.68Z"/>
    <path class="cls-1" d="M420.23,375.17c-.36,1.16-.73,2.33-1.09,3.49,6.4,2.8,9.99,9.48,13.5,15.52,3.49,6.01,7.34,11.82,11.97,17.01,5.26,5.89,11.48,10.91,18.3,14.88,12.1,7.02,25.83,10.63,39.38,14.16,9.34,2.43,18.78,4.88,28.43,5.24s19.67-1.54,27.54-7.14c-20.18-1.06-40.78-.34-60.18-6.03-17.41-5.1-33.26-15.38-45.02-29.19-4.78-5.61-8.9-11.78-14.02-17.09-5.12-5.3-11.51-9.79-18.81-10.85Z"/>
    <path class="cls-1" d="M505.34,418.52c1.71,.1,3.5,.08,5.02-.7,3.62-1.86,3.99-6.75,4.44-10.79,.73-6.65,2.93-13.13,6.4-18.84,1.67-2.75,3.65-5.37,4.7-8.41,1.06-3.04,1-6.73-1.14-9.14-2.45-2.77-6.84-2.95-10.27-1.58-3.43,1.37-6.2,3.97-9.1,6.24-4.59,3.59-9.73,6.5-14,10.48-4.27,3.97-7.71,9.37-7.54,15.2,.15,5.07,3.12,9.82,7.22,12.82,4.09,3,9.19,4.4,14.26,4.71Z"/>
    <path class="cls-1" d="M574.99,403.59c-1.22,5.42,3.45,10.42,8.34,13.05,4.9,2.63,10.58,4.22,14.29,8.35,2.92,3.26,4.17,7.65,6.31,11.46,2.14,3.82,5.95,7.39,10.3,6.83,3.94-.5,6.99-4.27,10.95-4.34,4.38-.07,7.34,4.19,10.06,7.63,2.71,3.43,7.56,6.64,11.13,4.1,2.86-2.03,2.55-6.66,.32-9.35-2.23-2.7-5.72-3.95-9.03-5.09-.62-2.66,.3-5.62,2.33-7.45-9.83-5.82-19.67-11.65-29.5-17.46-4.02-2.38-8.78-4.82-13.11-3.1-3.22,1.29-5.81,4.77-9.23,4.24-2.85-.44-4.42-3.42-6.02-5.82s-4.74-4.65-7.14-3.06Z"/>
    <path class="cls-1" d="M579.37,214.59c-2.06-5-5.96-10.14-4.1-15.22,.38-1.05,1.02-2.06,.93-3.18-.16-1.92-2.25-2.94-3.92-3.89-6.9-3.92-10.16-11.88-14.09-18.77-3.93-6.89-10.42-13.84-18.3-12.98,3.19,4.16,6.39,8.32,9.58,12.48,6.85,8.92,13.83,18.1,17.07,28.86,3.24,10.77,1.99,23.62-6.02,31.51-2.41,2.37-5.3,4.19-7.83,6.43s-4.77,5.1-5.2,8.45,1.5,7.17,4.8,7.89c2.16,.47,4.38-.39,6.37-1.36,7.48-3.63,14.29-9.05,18.46-16.25s5.42-16.29,2.25-23.98Z"/>
    <path class="cls-1" d="M578.41,590.06c-.71,1-.85,2.29-.96,3.51-.41,4.45-.82,8.9-1.22,13.35,1.92,.98,4.06-.8,5.41-2.48,3.88-4.82,7.12-10.15,9.61-15.82-2.1,.81-4.44,.14-6.66-.21-2.21-.35-4.87-.19-6.18,1.64Z"/>
    <path class="cls-1" d="M400,20.86C190.86,20.86,21.33,190.4,21.33,399.54s169.54,378.67,378.67,378.67,378.67-169.54,378.67-378.67S609.14,20.86,400,20.86Zm125.04,55.42c-7.53,3.26-14.98,7.13-22.34,10.3-27.23,11.73-57.46,13.97-87.03,16.06-15.45,1.09-30.89,2.18-46.34,3.27-.26,4.82-4.41,9.12-9.21,9.55-4.8,.44-9.66-3.05-10.78-7.74-14.78,10.81-34.64,14.32-52.24,9.26,.02-6.58,9.3-10.86,14.33-6.6,2.73-8.98-4.76-18.5-13.68-21.44-8.92-2.94-18.62-1.14-27.83,.7-10.65,2.12-21.54,4.33-30.88,9.86-9.34,5.54-17.02,15.13-17.25,25.98,19.57-8.46,39.14-16.93,58.71-25.39-10.36,9.18-20.72,18.37-31.08,27.54-6.28,5.56-13.46,11.47-21.85,11.11s-15.74-11.33-9.86-17.32c-11.16,7.9-25.18,9.25-38.9,11.4,60.06-49.91,137.17-79.96,221.18-79.96,44.08,0,86.22,8.35,125.04,23.42ZM141.62,168.73c8.97-.61,18.24,3.05,24.04,9.96,7,8.34,8.56,20.85,3.82,30.66,6.18-.62,12.35-1.25,18.52-1.87,.72,3.29,1.44,6.58,2.15,9.86,5.97,.38,11.94,.77,17.9,1.15-.8,12.39-9.38,23.94-21.01,28.3-11.63,4.35-25.68,1.27-34.42-7.54-6.21,3.48-13.27-4.36-13.65-11.47-.38-7.11,2.58-14.26,1.14-21.24-1.67-8.11-9.13-13.3-17.41-14.82,5.98-7.94,12.3-15.59,18.9-22.98ZM468.93,739.3c1.28-3.34,1.7-6.91,.81-10.42,11.83,1.7,24.34-2.02,33.33-9.9,4.99-12.17-2.02-26.6-12.67-34.31-10.65-7.71-24.06-10.3-36.99-12.68-28.42-5.24-57.23-2.05-85.66,1.29-23.47,2.75-49.99,7.82-66.57,26.28-6.89,7.66-11.37,17.9-12.62,28.17-136.63-46.53-235.22-176.02-235.22-328.18,0-16.5,1.24-32.72,3.48-48.62,4.21,5.63,10.54,9.71,17.48,9.52,7.13,29.81,14.26,59.62,21.38,89.43,8.86,37.06,18.2,75.18,40.57,106.04,4.71,6.5,10.47,12.94,18.24,14.99,12.63,3.33,25.58-6.73,30.55-18.82,4.97-12.09,4.15-25.63,4.12-38.7-.17-58.3,17.12-116.54,49.06-165.31-12.82,4.54-29.64,8.02-37.9-2.78-3.7-4.84-4.38-11.27-4.93-17.34-1.89-21-3.78-42.01-5.66-63.01,10.7,24.3,17.05,50.5,18.66,77,20.3-2.89,39.78-11.39,55.7-24.32,4.62-3.75,9.27-8.55,9.41-14.5,.38-16.46-29.75-17.18-33.21-33.29,.59,2.78,50.14,17.96,56.25,21.53,16.85,9.85,21.89,30.73,30.26,47.8,3.03,6.18,3.79,13.48,7.66,19.21,2.79,4.13,7.62,7.27,12.56,6.6,10.9-1.49,18.17-28.26,22.89-37.27,9.2-17.58,19.65-28.76,33.53-10.86,11.78,15.19,27.83,32.66,35.79,50.2,6.3,13.89,8.26,32.3,29.11,31.49,2.24-.09-12.6-22.44-13.81-23.95-7.16-8.95-11.23-17.85-16.02-28.71,6.06,7.74,14.72,14.02,24.52,14.78,9.79,.75,20.39-5.38,22.46-14.98,2.07-9.6-7.32-20.46-16.82-17.97-2.45-5.46,2.22-11.8,7.76-14.08,5.54-2.27,11.76-1.99,17.61-3.26,21.13-4.58,32.78-32.97,20.94-51.06-6.08-9.3-17.1-20.51-9.96-29.02,4.19-5,12.69-4.12,17.5,.29,4.81,4.41,6.69,11.14,7.66,17.59,2.02-.47,4.03-.95,6.05-1.42,5.57-26.94,10.49-56.43-2.33-80.78-3.62-6.87-8.63-15.03-4.61-21.67,2.3-3.78,6.82-5.48,10.19-8.35,3.37-2.87,5.27-8.81,1.66-11.36,3.81,.17,7.62,.34,11.43,.51-.86,18.83,13.39,37.22,31.84,41.12-8.91-23.18-15.56-47.23-19.88-71.7,108.37,58.68,182.14,173.42,182.14,305.06,.02,167.53-119.48,307.68-277.73,339.74Z"/>
    <path class="cls-1" d="M675.27,590.89c-20.46,16.89-40.93,33.78-61.39,50.66,28.02-2.73,53.4-23.66,61.39-50.66Z"/>
  </g>
</svg>