<?xml version="1.0" encoding="UTF-8"?>
<svg id="Livello_2" data-name="Livello 2" xmlns="http://www.w3.org/2000/svg" viewBox="0 0 520 395">
  <defs>
    <style>
      .cls-1 {
        fill-rule: evenodd;
      }

      .cls-1, .cls-2 {
        fill: none;
        stroke: #fff;
        stroke-miterlimit: 10;
        stroke-width: 20px;
      }
    </style>
  </defs>
  <g id="Livello_1-2" data-name="Livello 1">
    <path class="cls-2" d="M228.75,385s-31.25,0-31.25-31.25,31.25-125,156.25-125,156.25,93.75,156.25,125-31.25,31.25-31.25,31.25H228.75Zm125-187.5c51.78,0,93.75-41.97,93.75-93.75S405.53,10,353.75,10s-93.75,41.97-93.75,93.75,41.97,93.75,93.75,93.75Z"/>
    <path class="cls-1" d="M173,385c-4.63-9.76-6.94-20.45-6.75-31.25,0-42.34,21.25-85.94,60.5-116.25-19.59-6.04-40-8.99-60.5-8.75-125,0-156.25,93.75-156.25,125s31.25,31.25,31.25,31.25H173Z"/>
    <path class="cls-2" d="M150.62,197.5c43.15,0,78.12-34.98,78.12-78.12s-34.98-78.12-78.12-78.12-78.12,34.98-78.12,78.12,34.98,78.12,78.12,78.12Z"/>
  </g>
</svg>