<?xml version="1.0" encoding="utf-8"?>
<!-- Generator: Adobe Illustrator 27.0.0, SVG Export Plug-In . SVG Version: 6.00 Build 0)  -->
<svg version="1.1" id="Livello_1" xmlns="http://www.w3.org/2000/svg" xmlns:xlink="http://www.w3.org/1999/xlink" x="0px" y="0px"
	 viewBox="0 0 700 700" style="enable-background:new 0 0 700 700;" xml:space="preserve">
<style type="text/css">
	.st0{fill:#FFCC4D;}
	.st1{fill:#FFFFFF;}
	.st2{fill:none;stroke:#FFCC4D;stroke-width:20;stroke-miterlimit:10;}
	.st3{fill:#FFCC4D;stroke:#FFCC4D;stroke-width:20;stroke-miterlimit:10;}
	.st4{fill:#FFCC4D;stroke:#FFCC4D;stroke-width:20.3036;stroke-miterlimit:10;}
	.st5{fill:#FFFFFF;stroke:#FFFFFF;stroke-width:20;stroke-miterlimit:10;}
</style>
<g>
	<path class="st0" d="M625,20c30.3,0,55,24.7,55,55v150c0,30.3-24.7,55-55,55H475c-30.3,0-55-24.7-55-55V75c0-30.3,24.7-55,55-55
		H625 M225,20c30.3,0,55,24.7,55,55v150c0,30.3-24.7,55-55,55H75c-30.3,0-55-24.7-55-55V75c0-30.3,24.7-55,55-55H225 M625,420
		c30.3,0,55,24.7,55,55v150c0,30.3-24.7,55-55,55H475c-30.3,0-55-24.7-55-55V475c0-30.3,24.7-55,55-55H625 M225,420
		c30.3,0,55,24.7,55,55v150c0,30.3-24.7,55-55,55H75c-30.3,0-55-24.7-55-55V475c0-30.3,24.7-55,55-55H225 M625,0H475
		c-41.4,0-75,33.6-75,75v150c0,41.4,33.6,75,75,75h150c41.4,0,75-33.6,75-75V75C700,33.6,666.4,0,625,0L625,0z M225,0H75
		C33.6,0,0,33.6,0,75v150c0,41.4,33.6,75,75,75h150c41.4,0,75-33.6,75-75V75C300,33.6,266.4,0,225,0L225,0z M625,400H475
		c-41.4,0-75,33.6-75,75v150c0,41.4,33.6,75,75,75h150c41.4,0,75-33.6,75-75V475C700,433.6,666.4,400,625,400L625,400z M225,400H75
		c-41.4,0-75,33.6-75,75v150c0,41.4,33.6,75,75,75h150c41.4,0,75-33.6,75-75V475C300,433.6,266.4,400,225,400L225,400z"/>
</g>
</svg>
