<?xml version="1.0" encoding="utf-8"?>
<!-- Generator: Adobe Illustrator 27.0.0, SVG Export Plug-In . SVG Version: 6.00 Build 0)  -->
<svg version="1.1" id="Livello_1" xmlns="http://www.w3.org/2000/svg" xmlns:xlink="http://www.w3.org/1999/xlink" x="0px" y="0px"
	 viewBox="0 0 700 700" style="enable-background:new 0 0 700 700;" xml:space="preserve">
<style type="text/css">
	.st0{fill:#FFCC4D;}
	.st1{fill:#FFFFFF;}
	.st2{fill:none;stroke:#FFCC4D;stroke-width:20;stroke-miterlimit:10;}
	.st3{fill:#FFCC4D;stroke:#FFCC4D;stroke-width:20;stroke-miterlimit:10;}
	.st4{fill:#FFCC4D;stroke:#FFCC4D;stroke-width:20.3036;stroke-miterlimit:10;}
	.st5{fill:#FFFFFF;stroke:#FFFFFF;stroke-width:20;stroke-miterlimit:10;}
</style>
<path class="st0" d="M0,75C0,33.6,33.6,0,75,0h150c41.4,0,75,33.6,75,75v150c0,41.4-33.6,75-75,75H75c-41.4,0-75-33.6-75-75V75z
	 M400,75c0-41.4,33.6-75,75-75h150c41.4,0,75,33.6,75,75v150c0,41.4-33.6,75-75,75H475c-41.4,0-75-33.6-75-75V75z M0,475
	c0-41.4,33.6-75,75-75h150c41.4,0,75,33.6,75,75v150c0,41.4-33.6,75-75,75H75c-41.4,0-75-33.6-75-75V475z M400,475
	c0-41.4,33.6-75,75-75h150c41.4,0,75,33.6,75,75v150c0,41.4-33.6,75-75,75H475c-41.4,0-75-33.6-75-75V475z"/>
</svg>
