<?xml version="1.0" encoding="utf-8"?>
<!-- Generator: Adobe Illustrator 27.0.0, SVG Export Plug-In . SVG Version: 6.00 Build 0)  -->
<svg version="1.1" id="_x2014_ÎÓÈ_x5F_1" xmlns="http://www.w3.org/2000/svg" xmlns:xlink="http://www.w3.org/1999/xlink"
	 x="0px" y="0px" viewBox="0 0 1317.7 1811.9" style="enable-background:new 0 0 1317.7 1811.9;" xml:space="preserve">
<style type="text/css">
	.st0{fill:#FFD629;}
	.st1{fill:#FFE36C;}
	.st2{fill:#F4B400;}
	.st3{fill:#F9322D;}
	.st4{fill:#FFF2BD;}
	.st5{fill:#1E1E1E;}
	.st6{fill:#161616;}
</style>
<g>
	<g>
		<g>
			<g>
				<g>
					<g>
						<g>
							<g>
								<path d="M287.7,518.2c-2.1-5.8-7.6-10-11.7-14.5c-8.5-9.2-16.5-19.1-22.1-30.5c-6-12.2-8.2-25.4-7.9-38.9
									c0.2-12.8,2.2-25.5,3.5-38.2c2.4-22.9,3-46.3-1.4-68.9c-4.6-23.5-15.2-45.5-32.7-62c-16.6-15.7-37.3-26.9-59-33.9
									c-21.3-6.8-44.3-10-66.5-6.6c-19.3,2.9-37.4,12.1-51.2,26c-14.7,14.8-24.3,34-29,54.3c-4.7,20.2-5.2,41.3-2.1,61.8
									c3.2,20.5,10.3,40.4,22,57.6c5.9,8.6,12.9,16.3,21,22.8c4,3.3,8.3,6.2,12.7,8.8c5.7,3.3,11.5,5.4,17.8,2.7
									c10.4-4.5,13.8-18.8,7.4-27.8c-3.2-4.5-8.4-6.4-12.8-9.5c-4-2.8-7.6-6-10.9-9.6c-13.6-15-20.2-35.1-22.6-54.9
									c-2.5-21.3-0.2-44.5,9.1-64c4.5-9.5,11.3-18.4,20.3-24c8.8-5.5,18.9-8.3,29.2-9.1c19.1-1.6,40.1,3.4,58,11.2
									c19.6,8.6,37.6,22.1,47.2,41.7c11.8,24.3,9.7,52.3,7.1,78.3c-2.6,26.2-6.3,53.1,0.8,78.9c6.6,24.5,22.6,44.7,39.8,62.8
									c3.9,4.1,7.8,9.1,13.5,10.6c6.7,1.7,12.7-1.4,17.1-6.4C288.7,531.5,290,524.5,287.7,518.2z"/>
							</g>
						</g>
					</g>
				</g>
				<g>
					<g>
						<g>
							<g>
								<g>
									<path d="M293.1,516.7c-2.2-5.9-6.4-10.1-10.8-14.5c-4-3.9-8.2-8.7-11.3-12.7c-7.6-9.6-13.8-19.8-16.9-31.4
										c-1.6-6.1-2.3-11.5-2.5-17.9c-0.2-6.3,0.1-12.6,0.7-18.9c1.1-12.4,2.9-24.6,3.8-37c1.8-24.5,1-50-6.5-73.6
										c-3.6-11.1-8.6-21.9-15.2-31.6c-6.6-9.7-14.7-18.1-23.9-25.4c-17.8-14.1-38.6-24.1-60.5-30c-22.7-6.2-47.5-8.3-70.5-2.5
										c-23.1,5.9-42.7,20.2-56.3,39.5C9.9,279.3,3.3,301.5,0.9,323.9c-2.5,24.1,0.2,49.3,8.3,72.2c8.4,23.6,22.8,44.7,43.3,59.5
										c4.7,3.4,9.7,6.6,15.2,8.5c5.6,2,11.5,1.6,16.8-0.9c8.7-4.1,13.7-14.5,12.8-23.9c-0.5-5.4-2.6-10.5-6.4-14.4
										c-3.6-3.7-8.9-5.9-12.8-8.8c-2-1.5-4.4-3.6-6.4-5.5c-1-1-1.9-2-2.9-3c-0.5-0.5-1-1.1-1.4-1.6c-0.2-0.2-0.4-0.5-0.6-0.7
										c-0.1-0.2-0.3-0.3-0.4-0.5c0.2,0.2,0.2,0.2-0.1-0.1c-3.5-4.5-6.5-9.4-9-14.5c-0.3-0.7-0.6-1.3-0.9-2
										c-0.1-0.3-0.3-0.6-0.4-0.8c0.3,0.7-0.1-0.3-0.1-0.3c-0.6-1.3-1.1-2.7-1.6-4.1c-1-2.7-1.9-5.5-2.7-8.3
										c-0.8-2.8-1.5-5.6-2-8.5c-0.3-1.4-0.6-2.9-0.8-4.3c-0.1-0.6-0.2-1.2-0.3-1.8c0-0.1-0.2-1.1-0.1-0.4
										c-0.1-0.4-0.1-0.8-0.2-1.2c-0.7-5.5-1.1-11-1.2-16.6c0-2.8,0-5.6,0.2-8.4c0.1-1.3,0.2-2.6,0.3-3.9c0.1-0.7,0.1-1.4,0.2-2.1
										c0-0.3,0.1-0.6,0.1-0.9c0-0.1,0.2-1.3,0.1-0.6c0.7-5.4,1.7-10.8,3.2-16.1c0.7-2.7,1.6-5.3,2.5-7.9c0.2-0.6,0.5-1.3,0.7-1.9
										c-0.2,0.5,0.4-0.9,0.5-1.1c0.5-1.3,1.1-2.5,1.7-3.8c1.2-2.4,2.5-4.8,3.9-7.1c1.6-2.5,2.4-3.6,4.3-5.9
										c1.8-2.1,3.7-4,5.7-5.7c0.2-0.2,0.4-0.4,0.7-0.6c-0.2,0.2-0.7,0.5,0.2-0.2c0.5-0.3,0.9-0.7,1.4-1c1.3-0.9,2.6-1.7,4-2.5
										c5.1-2.9,10.5-4.7,16.5-6c2.9-0.6,5.3-0.9,8.4-1.2c2.8-0.2,5.7-0.3,8.5-0.2c11.3,0.2,22.4,2.4,33.6,6
										c5.6,1.8,10,3.5,15.1,5.9c4.7,2.2,9.4,4.7,13.8,7.5c1,0.6,2,1.3,3,2c0.5,0.4,1.1,0.7,1.6,1.1c0.2,0.2,0.5,0.3,0.7,0.5
										c0.8,0.6-0.6-0.4,0.2,0.1c2.1,1.6,4.1,3.2,6,4.9c1.9,1.7,3.8,3.5,5.6,5.4c0.9,0.9,1.7,1.9,2.6,2.9c0.2,0.2,0.4,0.4,0.5,0.6
										c0,0,0.6,0.7,0.2,0.3c-0.4-0.5,0.3,0.4,0.4,0.5c0.2,0.3,0.5,0.6,0.7,0.9c7,9.3,11.1,19.4,13.4,30.8
										c1.1,5.6,1.7,11.2,2,17.3c0.3,6.2,0.1,12.5-0.2,18.7c-1.3,24.2-5.8,48.3-4.8,72.7c0.5,12.2,2.4,24.4,6.6,35.9
										c4.1,11.4,10.1,22.1,17.2,32c7,9.7,15,18.4,23,27.2c3.7,4,7.5,7.8,12.7,9.8c5.9,2.3,12.6,1.3,18-1.8
										C292.1,540.2,296.9,527.7,293.1,516.7c-1-2.8-3.9-4.8-6.9-3.8c-2.8,0.9-4.9,4-3.8,6.9c0.2,0.6,0.4,1.2,0.5,1.8
										c0.1,0.2,0.3,1.6,0.2,1.1c-0.1-0.6,0,0.3,0,0.3c0,0.4,0.1,0.7,0.1,1.1c0,0.6,0,1.2,0,1.8c0,0.9,0.1-0.8,0,0.1
										c0,0.3-0.1,0.5-0.1,0.8c-0.1,0.5-0.2,1-0.4,1.5c-0.1,0.3-0.2,0.7-0.3,1c0,0-0.3,0.8-0.1,0.3c0.2-0.5-0.1,0.3-0.1,0.3
										c-0.2,0.4-0.4,0.8-0.6,1.2c-0.3,0.5-0.5,0.9-0.8,1.4c-0.1,0.1-0.7,1-0.3,0.5c0.4-0.4-0.3,0.3-0.3,0.3
										c-0.4,0.4-0.8,0.9-1.3,1.3c-0.3,0.3-0.6,0.5-0.9,0.8c0.4-0.4-0.1,0.1-0.2,0.2c-0.6,0.4-1.1,0.8-1.7,1.1
										c-0.2,0.1-0.5,0.3-0.8,0.4c0,0-0.9,0.4-0.3,0.2c0.5-0.2-0.3,0.1-0.4,0.1c-0.4,0.1-0.7,0.2-1.1,0.3
										c-0.3,0.1-0.6,0.1-0.8,0.2c-0.9,0.2,0.7,0-0.2,0c-1.3,0.1-2.4,0.1-3-0.1c-0.6-0.1-1.2-0.3-1.8-0.5c-0.6-0.2,0.1,0,0.2,0.1
										c-0.4-0.2-0.8-0.4-1.1-0.6c-0.4-0.2-0.9-0.5-1.3-0.8c-0.5-0.3,0,0,0.1,0.1c-0.3-0.2-0.5-0.4-0.8-0.6
										c-0.9-0.8-1.8-1.6-2.6-2.5c-3.7-3.8-7.3-7.8-10.9-11.7c-3.8-4.3-7.2-8.3-10.5-12.6c-3.5-4.6-6.8-9.4-9.8-14.5
										c-6-10-10.1-19.8-12.6-31.4c-2.3-10.8-2.8-22.5-2.4-34.1c0.4-11.8,1.7-23.6,2.9-35.4c2.4-24,4.7-49.2-3.1-72.5
										c-3.6-10.9-9.3-20.7-17-29.3c-7-7.8-15.6-14.3-24.6-19.5c-9.6-5.5-20-9.7-30.5-12.9c-11.1-3.3-22.7-5.3-34.4-5.5
										c-12.5-0.1-25,2.2-36.1,7.9c-10.3,5.3-18.3,13.9-24,23.8c-10.9,19.1-14.3,42.6-12.9,64.3c1.5,23.3,8.4,46.9,23.9,64.8
										c3.9,4.5,8.4,8.4,13.3,11.8c2,1.4,4.1,2.5,6.2,3.8c0.5,0.3,1,0.7,1.6,1c0.5,0.4,0,0-0.1-0.1c0.3,0.2,0.6,0.4,0.8,0.7
										c0.4,0.3,0.8,0.7,1.2,1.1c0.3,0.2,0.5,0.5,0.7,0.8c-0.4-0.4-0.1-0.2,0.1,0.1c0.6,0.8,1,1.7,1.5,2.5
										c0.3,0.6-0.1-0.3-0.2-0.4c0.1,0.3,0.2,0.6,0.3,0.8c0.2,0.5,0.3,1,0.4,1.5c0.1,0.5,0.2,1,0.3,1.5c-0.2-1-0.1-0.2,0,0.3
										c0.1,1,0,2.1,0,3.1c-0.1,1,0,0.1,0-0.1c0,0.2-0.1,0.4-0.1,0.7c-0.1,0.5-0.2,1-0.3,1.5c-0.1,0.4-0.3,0.9-0.4,1.3
										c0,0.1-0.3,0.8,0,0.2c0.3-0.7-0.2,0.4-0.3,0.6c-0.4,0.9-1,1.6-1.4,2.5c-0.2,0.5,0.1-0.2,0.2-0.3c-0.2,0.2-0.4,0.5-0.6,0.7
										c-0.3,0.4-0.7,0.8-1.1,1.1c-0.3,0.3-1.3,1.1-0.4,0.4c-0.4,0.3-0.7,0.5-1.1,0.8c-0.4,0.3-0.9,0.5-1.4,0.8
										c-0.2,0.1-0.4,0.2-0.6,0.3c0.6-0.3,0.3-0.1-0.1,0c-0.6,0.2-1.2,0.3-1.8,0.5c-0.6,0.2,0.1,0,0.2,0c-0.3,0-0.7,0.1-1,0.1
										c-0.5,0-1,0-1.5,0c-0.1,0-0.9-0.1-0.3,0c0.7,0.1-0.6-0.1-0.8-0.1c-0.5-0.1-1-0.2-1.5-0.4c-0.3-0.1-0.6-0.2-1-0.3
										c0,0-0.8-0.3-0.3-0.1c0.5,0.2-0.3-0.1-0.3-0.1c-0.2-0.1-0.5-0.2-0.7-0.3c-0.6-0.3-1.3-0.6-1.9-0.9
										c-2.5-1.3-4.8-2.8-7.1-4.3c-8.9-6-17.7-14.6-24-23.1c-7-9.6-12.5-20.1-16.4-30.9c-2.1-5.7-3.8-11.5-5.1-17.5
										c-1.3-5.8-2.2-11-2.8-16.6c-2.5-22.6-0.8-45.3,6.7-66.8c0.4-1.2,0.8-2.3,1.3-3.5c0,0,0.3-0.9,0.2-0.4
										c-0.2,0.5,0.2-0.4,0.2-0.4c0.3-0.7,0.6-1.4,0.9-2.1c1-2.4,2.1-4.7,3.3-7c2.4-4.7,5.1-9.1,8.1-13.4c0.1-0.2,0.9-1.3,0.5-0.7
										c0.4-0.5,0.8-1.1,1.2-1.6c0.8-1.1,1.6-2.1,2.5-3.1c1.7-2,3.4-3.9,5.2-5.7c4.1-4.2,7.7-7.2,12.4-10.4
										c9.5-6.5,18.8-10.6,30-13.1c5.6-1.3,10.1-1.8,16.1-2.2c5.7-0.3,11.4-0.3,17.2,0.1c5.6,0.4,10.2,1,15.9,2.1
										c5.6,1.1,11.2,2.4,16.7,4c2.6,0.8,5.2,1.6,7.8,2.5c1.2,0.4,2.4,0.8,3.6,1.3c0.6,0.2,1.3,0.5,1.9,0.7
										c0.3,0.1,0.6,0.2,0.8,0.3c0.1,0,1.2,0.5,0.6,0.2c4.9,2,9.8,4.2,14.5,6.7c4.8,2.5,9.5,5.2,14,8.2c4.5,3,7.8,5.4,12.1,9
										c4.3,3.6,8.3,7.5,12,11.7c3.4,3.8,6.6,8.2,9.5,13c1.5,2.4,2.8,4.8,4.1,7.2c0.6,1.2,1.2,2.4,1.8,3.6c0.3,0.7,0.6,1.3,0.9,2
										c0,0,0.4,0.9,0.2,0.4c-0.1-0.3,0.3,0.6,0.3,0.7c2.2,5.2,4.1,10.6,5.6,16.1c3.1,11.5,4.5,22.4,5.1,34.3
										c0.6,12.1,0.1,24.2-1,36.3c-1.1,12.3-3,24.4-3.8,36.7c-0.8,12.5-0.3,25.2,3.4,37.3c3.6,11.8,10.1,22.5,17.7,32.1
										c3.7,4.6,7.5,9.2,11.7,13.4c1.8,1.8,3.7,3.6,5.4,5.5c1,1.1,1,1.1,1.9,2.3c0.3,0.5,0.6,1,0.9,1.5c0.2,0.3,0.4,0.7,0.5,1
										c-0.1-0.2-0.3-0.9,0.1,0.2c1,2.7,3.9,4.9,6.9,3.8C291.9,522.7,294.2,519.6,293.1,516.7z"/>
								</g>
							</g>
						</g>
					</g>
				</g>
			</g>
			<g>
				<g>
					<g>
						<g>
							<g>
								<path d="M329.6,557.4c-12.8,1.3-23.7,12-26.6,24.3c-3.2,13.7,2.8,28,15.3,34.7c6,3.2,12.8,4.6,19.6,3.7
									c7.6-1,14.1-5.2,19-11c8.2-10.3,9.4-24.6,2.3-35.8C352.8,563.2,341.9,556.1,329.6,557.4z"/>
							</g>
						</g>
					</g>
				</g>
				<g>
					<g>
						<g>
							<g>
								<g>
									<path d="M329.5,551.8c-15.1,1.7-27.9,13-31.8,27.7c-3.7,14.1,1.4,29.9,13.2,38.7c6.5,4.9,14.4,7.6,22.6,7.8
										c8.8,0.1,16.9-3.2,23.5-8.9c11.2-9.7,15.8-26.6,10.1-40.4C361.1,561.8,346,550.2,329.5,551.8c-2.9,0.3-5.7,2.5-5.5,5.7
										c0.2,2.8,2.5,5.8,5.7,5.5c1.5-0.1,3-0.2,4.4-0.1c0.3,0,0.5,0,0.8,0.1c1.4,0.1-1.2-0.2,0.1,0c0.8,0.1,1.5,0.3,2.3,0.4
										c0.6,0.1,1.3,0.3,1.9,0.5c0.4,0.1,0.7,0.2,1.1,0.4c0.1,0,1.3,0.5,0.4,0.1c-0.9-0.3,0.3,0.1,0.4,0.2
										c0.4,0.2,0.7,0.3,1.1,0.5c0.7,0.3,1.4,0.7,2,1.1c0.6,0.3,1.1,0.7,1.6,1c0.3,0.2,0.5,0.4,0.8,0.6c0.7,0.5-1.1-0.9-0.1,0
										c1.1,0.9,2.2,1.8,3.2,2.8c0.6,0.6,1.1,1.1,1.6,1.7c0.2,0.2,0.4,0.4,0.5,0.6c0.2,0.3,1.2,1.1,0.1,0.1c1,1,1.8,2.4,2.5,3.6
										c0.4,0.6,0.7,1.2,1,1.8c0.2,0.4,0.4,0.8,0.6,1.1c0.6,1.2-0.3-0.9,0,0c0.6,1.5,1.1,2.9,1.5,4.5c0.1,0.6,0.5,1.5,0.4,2
										c0-0.2-0.1-0.5-0.1-0.7c0,0.3,0.1,0.5,0.1,0.8c0,0.3,0.1,0.5,0.1,0.8c0.1,1.5,0.1,3.1,0,4.7c0,0.3,0,0.7-0.1,1
										c0.4-1.2,0-0.2,0,0.2c-0.1,0.7-0.2,1.3-0.4,2c-0.1,0.5-1.1,4.3-1.3,4.3c0.1-0.2,0.2-0.4,0.2-0.6c-0.1,0.3-0.2,0.5-0.3,0.8
										c-0.1,0.3-0.2,0.5-0.3,0.8c-0.4,0.7-0.7,1.5-1.1,2.2c-0.3,0.6-0.7,1.2-1.1,1.8c-0.2,0.2-0.3,0.5-0.5,0.7
										c-0.4,0.5-0.3,0.5,0.1-0.1c-0.2,0.2-0.3,0.4-0.5,0.7c-1,1.2-2.1,2.4-3.3,3.5c-0.4,0.3-0.7,0.6-1.1,0.9
										c0.9-0.7,0.1,0-0.2,0.1c-0.8,0.6-1.5,1.1-2.4,1.6c-0.7,0.5-1.5,0.9-2.3,1.3c-0.3,0.1-0.6,0.3-0.9,0.4
										c1.3-0.6-0.2,0.1-0.4,0.1c-1.7,0.6-3.4,1.1-5.1,1.4c1.3-0.2-0.2,0-0.4,0c-0.4,0-0.8,0.1-1.1,0.1c-0.8,0.1-1.7,0.1-2.5,0.1
										c-0.7,0-1.5-0.1-2.2-0.1c-1.4-0.1,0.8,0.1-0.1,0c-0.5-0.1-1-0.2-1.5-0.2c-1.5-0.3-2.9-0.7-4.3-1.1
										c-0.4-0.1-0.8-0.3-1.3-0.5c1.1,0.4,0.1,0.1-0.1-0.1c-0.9-0.4-1.8-0.8-2.7-1.3c-0.6-0.3-1.2-0.7-1.8-1.1
										c-0.2-0.1-0.5-0.3-0.7-0.5c-0.2-0.1-1.4-0.9-0.2-0.1c-1.2-0.8-2.4-1.9-3.4-3c-0.5-0.5-1-1.1-1.5-1.6c-0.6-0.6,0.8,1.1,0,0
										c-0.2-0.3-0.5-0.6-0.7-1c-0.9-1.2-1.6-2.5-2.3-3.8c-0.2-0.4-0.4-0.7-0.5-1.1c-0.2-0.5-0.5-0.5,0.1,0.3
										c-0.4-0.4-0.5-1.3-0.7-1.9c-0.5-1.5-0.9-3.1-1.2-4.7c0-0.2-0.1-0.6-0.1-0.8c0.4,1.3,0.1,0.3,0-0.1c-0.1-0.7-0.1-1.4-0.1-2
										c-0.1-1.5,0-3,0.1-4.5c0.1-1.4-0.2,1.2,0-0.2c0.1-0.4,0.1-0.8,0.2-1.2c0.2-0.9,0.4-1.7,0.6-2.6c0.2-0.8,0.5-1.5,0.8-2.3
										c0.3-0.8-0.6,1.2,0,0c0.2-0.5,0.4-1,0.7-1.5c0.7-1.5,1.5-2.9,2.5-4.2c0.1-0.2,0.3-0.5,0.5-0.7c-1,1.2,0.2-0.2,0.4-0.5
										c0.5-0.6,1.1-1.2,1.6-1.8c0.6-0.6,1.1-1.2,1.8-1.7c0.3-0.3,0.6-0.5,0.9-0.8c0.9-0.8-0.9,0.6,0.1-0.1c1.3-1,2.7-1.9,4.1-2.7
										c0.4-0.2,0.7-0.4,1.1-0.6c0.4-0.2,1.2-0.8,0.1-0.1c0.6-0.4,1.6-0.6,2.3-0.9c0.8-0.3,1.6-0.5,2.4-0.6
										c0.4-0.1,0.8-0.2,1.2-0.2c0.6-0.1,0.5-0.1-0.3,0c0.3,0,0.5-0.1,0.8-0.1c2.9-0.3,5.7-2.4,5.5-5.7
										C335,554.5,332.7,551.4,329.5,551.8z"/>
								</g>
							</g>
						</g>
					</g>
				</g>
			</g>
		</g>
		<g>
			<g>
				<g>
					<g>
						<g>
							<path d="M467.5,56.9c-6.2-13.5-16-25.8-27.3-35.4c-11.8-10-27-15.8-42.5-15.9c-33.9-0.2-63.5,24.1-79.2,52.7
								c-8.8,16-13.5,34.2-10.7,52.5c1.2,8.1,3.3,18,12.1,20.9c7.2,2.3,15.9-0.8,19.8-7.3c2.3-3.9,2.9-8.4,1.6-12.8
								c-7.4-24.1,8.9-48.8,27.5-62.9c9.1-6.9,20.7-12.6,32.4-10.9c12,1.7,21.8,11.2,29.1,20.3c7.6,9.4,12.2,21,11,33.3
								c-1.3,13.3-8.8,25.6-16.3,36.4c-14.8,21.4-33.6,39.9-47.3,62.1c-7.1,11.6-12.6,24.1-15,37.5c-1.1,6.4-1.6,12.9,2.7,18.3
								c3.7,4.5,9.5,6.7,15.3,6.3c3.3-0.2,6.6-1.6,9-3.9c0.2-0.1,0.3-0.3,0.4-0.5c0.1-0.1,0.2-0.2,0.3-0.3c3.3-3.5,3.5-8,4.2-12.5
								c0.7-4.3,1.8-8.6,3.3-12.7c3.1-8.4,7.6-16,12.8-23.3c10.7-15,23.2-28.6,34.4-43.3c11.2-14.8,21.6-30.9,26.5-49
								C476.2,89.7,474.7,72.6,467.5,56.9z"/>
						</g>
					</g>
				</g>
			</g>
			<g>
				<g>
					<g>
						<g>
							<g>
								<path d="M472.3,54.1c-6.6-14.1-16.6-26.9-28.5-36.8C431.4,6.9,415.8,0.6,399.6,0c-28.5-1-55.1,15-72.9,36.4
									c-9.8,11.8-17.6,25.4-21.9,40.2c-2.3,7.9-3.5,16.3-3.4,24.6c0.1,4.2,0.5,8.3,1.2,12.4c0.5,2.9,1.1,5.9,2.1,8.7
									c2.4,6.9,6.9,12.7,14.1,14.8c7.4,2.2,15.5,0.1,21.4-4.8c3.1-2.6,5.3-6.2,6.5-10c1.4-4.6,0.9-9.1-0.3-13.6
									c-0.4-1.5-0.9-3.2-1-4.8c0.1,1.5,0,0,0-0.3c0-0.4-0.1-0.9-0.1-1.3c-0.1-1-0.1-2-0.1-3c0-1.6,0.1-3.2,0.3-4.7
									c0-0.3,0.1-1.7,0-0.2c0-0.4,0.1-0.9,0.2-1.3c0.2-1,0.4-2,0.6-3c0.4-1.7,0.9-3.4,1.5-5c0.2-0.7,0.5-1.4,0.8-2.1
									c0.2-0.4,0.3-0.8,0.5-1.2c-0.6,1.3,0.2-0.4,0.3-0.7c1.5-3.2,3.2-6.3,5.2-9.3c1-1.5,2-2.9,3.1-4.4c-0.8,1.1,0.1-0.1,0.2-0.3
									c0.3-0.3,0.6-0.7,0.8-1c0.6-0.7,1.1-1.4,1.7-2c2.4-2.8,5-5.3,7.8-7.8c1.2-1,2.4-2.1,3.6-3c-1.2,0.8,0.1-0.1,0.2-0.2
									c0.4-0.3,0.8-0.6,1.1-0.8c0.9-0.7,1.8-1.3,2.8-1.9c1.5-1,3-1.9,4.6-2.7c0.9-0.5,1.7-0.9,2.6-1.3c0.4-0.2,0.9-0.4,1.3-0.6
									c0.6-0.3,0.6-0.3,0,0c0.3-0.1,0.6-0.2,0.9-0.4c1.8-0.7,3.6-1.3,5.5-1.7c0.8-0.2,1.6-0.3,2.3-0.5c1.5-0.3-1.2,0.1,0.4-0.1
									c0.6-0.1,1.3-0.1,1.9-0.2c1,0,1.9-0.1,2.9,0c0.5,0,1,0.1,1.4,0.1c0.3,0,1.8,0,0.4,0c1.6,0,3.6,0.8,5,1.3
									c0.4,0.1,0.8,0.3,1.2,0.5c1.4,0.5-1.1-0.5,0.3,0.1c0.8,0.4,1.6,0.8,2.3,1.2c1.5,0.8,3,1.8,4.4,2.8c0.4,0.3,0.7,0.5,1.1,0.8
									c-1.1-0.8,0.1,0.1,0.3,0.2c0.7,0.6,1.4,1.1,2,1.7c1.4,1.3,2.8,2.6,4.1,4c1.1,1.2,2.2,2.4,3.2,3.6c0.6,0.7,1.1,1.3,1.6,2
									c0.3,0.3,0.5,0.7,0.8,1c-0.8-1,0.4,0.5,0.5,0.7c2.2,3,4,6.2,5.6,9.5c0.7,1.4-0.4-1.1,0.2,0.3c0.2,0.4,0.3,0.9,0.5,1.3
									c0.3,0.9,0.6,1.7,0.9,2.6c0.5,1.7,0.9,3.5,1.3,5.3c0,0.2,0.3,1.7,0.1,0.3c0.1,0.4,0.1,0.9,0.1,1.4c0.1,0.9,0.1,1.8,0.2,2.8
									c0,1.9-0.1,3.8-0.3,5.6c0.1-1.4,0,0.3-0.1,0.4c-0.1,0.5-0.2,1-0.3,1.4c-0.2,1-0.4,1.9-0.7,2.9c-0.5,1.9-1.1,3.8-1.8,5.6
									c-0.2,0.5-0.4,0.9-0.5,1.4c-0.1,0.1-0.7,1.6-0.2,0.5c-0.4,0.9-0.8,1.8-1.2,2.7c-0.9,1.9-1.9,3.8-3,5.7
									c-3.9,6.9-8.5,13.4-13.2,19.7c-0.6,0.8-1.2,1.6-1.8,2.4c-1,1.3,0.7-0.9-0.3,0.5c-0.3,0.4-0.6,0.8-0.9,1.2
									c-1.2,1.6-2.5,3.1-3.7,4.7c-2.5,3.1-5.1,6.2-7.6,9.3c-10.4,12.7-21.1,25.5-29.3,39.7c-4.1,7.1-7.6,14.6-10.2,22.5
									c-1.3,3.8-2.3,7.8-3,11.8c-0.7,3.9-1.4,8-1.1,12c0.4,4.7,1.8,8.9,4.8,12.5c2.6,3.3,6.1,5.5,10,7c7.8,2.9,17.6,1.3,23.2-5
									c3-3.4,4.5-7.4,5.2-11.9c0.6-4,1.2-8,2.4-11.9c0.6-1.8,1.2-3.6,1.9-5.4c0.2-0.5,0.4-0.9,0.6-1.4c-0.5,1.1,0.2-0.4,0.2-0.5
									c0.5-1.1,1-2.1,1.5-3.2c1.8-3.6,3.8-7.1,6-10.4c2.2-3.4,4.6-6.8,7.1-10c0.6-0.8,1.3-1.7,1.9-2.5c1-1.4-0.7,0.8,0.4-0.5
									c0.3-0.4,0.6-0.8,1-1.2c1.3-1.6,2.6-3.3,3.9-4.9c5.4-6.6,10.9-13.1,16.2-19.8c20.1-25,40.7-55,36.6-88.7
									C478.3,70.2,476,62,472.3,54.1c-1.2-2.7-5.3-3.5-7.7-2c-2.8,1.8-3.3,4.8-2,7.7c0.2,0.5,0.4,0.9,0.6,1.4
									c0.7,1.5-0.4-1,0.2,0.6c0.4,1,0.7,1.9,1.1,2.9c0.7,1.9,1.3,3.9,1.8,5.8c0.5,1.8,0.9,3.6,1.2,5.4c0.2,1,0.3,2,0.5,3
									c-0.2-1.3,0,0.3,0.1,0.5c0.1,0.7,0.1,1.3,0.2,2c0.3,3.8,0.3,7.7,0,11.5c-0.1,1-0.2,2-0.3,3c-0.2,1.7,0.2-1.1-0.1,0.5
									c-0.1,0.4-0.1,0.8-0.2,1.3c-0.3,2.1-0.8,4.2-1.3,6.3c-0.9,3.6-2.1,7.2-3.4,10.7c-0.4,0.9-0.7,1.8-1.1,2.7
									c0.5-1.2-0.1,0.3-0.2,0.5c-0.2,0.4-0.4,0.9-0.6,1.3c-0.8,1.8-1.7,3.5-2.5,5.3c-3.5,6.8-7.6,13.3-12,19.5
									c-2.2,3.2-4.6,6.3-7,9.5c-1,1.4,0.7-0.8-0.4,0.5c-0.2,0.3-0.4,0.5-0.6,0.8c-0.6,0.8-1.3,1.6-1.9,2.5
									c-1.3,1.6-2.6,3.3-3.9,4.9c-5.2,6.3-10.4,12.6-15.6,19c-10.5,13.1-20.8,26.7-25.8,42.9c-1.2,3.8-1.9,7.6-2.5,11.5
									c-0.2,1.8-0.5,3.5-1,5.2c-0.1,0.4-0.2,0.9-0.4,1.2c0.1-0.2,0.5-1,0-0.1c-0.2,0.4-0.5,0.8-0.7,1.2c-0.4,0.5-0.3,0.5,0,0
									c-0.2,0.2-0.4,0.5-0.6,0.7c-0.3,0.3-0.5,0.5-0.8,0.8c-1,1,0.9-0.5-0.3,0.2c-0.6,0.4-1.3,0.8-2,1.1c1.2-0.6-0.1,0-0.4,0.1
									c-0.4,0.1-0.9,0.3-1.3,0.4c-0.3,0.1-1.6,0.5-0.3,0.1c-0.5,0.2-1.2,0.1-1.7,0.1c-0.7,0-1.5,0.1-2.1-0.1
									c1.3,0.5,0.1,0-0.2-0.1c-0.4-0.1-0.8-0.2-1.3-0.3c-0.4-0.1-0.8-0.2-1.2-0.4c-0.1,0-0.3-0.1-0.4-0.1
									c-0.6-0.2-0.5-0.2,0.2,0.1c-0.7-0.1-1.7-0.9-2.2-1.2c-0.2-0.1-1.4-0.9-0.3-0.1c-0.3-0.2-0.7-0.6-1-0.8c-0.5-0.5-1-1-1.5-1.6
									c0.8,1-0.1-0.2-0.2-0.4c-0.2-0.4-0.4-0.8-0.7-1.2c-0.7-1.2,0.3,1-0.1-0.3c-0.2-0.6-0.4-1.1-0.5-1.7
									c-0.1-0.3-0.3-0.9-0.3-1.3c0,0.1,0.1,1.3,0,0.2c-0.1-0.9-0.1-1.7-0.1-2.6c0-0.9,0.1-1.8,0.2-2.7c0-0.4,0.1-0.9,0.1-1.3
									c-0.2,1,0,0.3,0.1-0.3c0.6-3.9,1.5-7.7,2.6-11.5c0.5-1.7,1.1-3.5,1.7-5.2c0.3-0.9,0.7-1.9,1-2.8c0.2-0.5,0.4-0.9,0.6-1.4
									c0.2-0.6,0.3-0.6,0,0c0.1-0.2,0.2-0.5,0.3-0.7c3.1-7.2,7.1-14.1,11.4-20.6c2.1-3.2,4.3-6.3,6.6-9.4c0.6-0.8,1.2-1.6,1.8-2.4
									c0.3-0.4,0.6-0.8,0.9-1.2c0.1-0.1,1.1-1.4,0.3-0.5c1.2-1.6,2.5-3.2,3.7-4.7c10-12.5,20.5-24.5,29.8-37.6
									c9.1-12.9,18-27.6,18.3-43.9c0.3-15.8-7.9-29.6-18.5-40.7c-5.3-5.5-11.3-10.2-18.4-13.1c-7.4-3.1-15.6-3.2-23.3-1.2
									c-7.6,2-14.7,5.9-20.9,10.6c-5.8,4.4-11.1,9.3-15.7,15c-9.3,11.5-16.3,25.5-16.3,40.6c0,3.7,0.5,7.5,1.3,11.1
									c0.2,0.9,0.5,1.7,0.7,2.6c0.1,0.5,0.2,0.9,0.3,1.4c0.4,1.4,0-1.1,0.1,0.4c0,0.8,0,1.6,0,2.3c0,1.5,0.3-1.1,0,0.4
									c-0.1,0.6-0.3,1.2-0.5,1.8c-0.1,0.2-0.6,1.6-0.1,0.4c-0.2,0.4-0.4,0.9-0.6,1.3c-0.3,0.5-0.7,1.3-1.1,1.7
									c1.1-1,0.1-0.2-0.1,0.1c-0.3,0.3-0.5,0.6-0.8,0.8c-0.2,0.2-0.6,0.7-0.9,0.8c0.6-0.5,0.7-0.5,0.2-0.2
									c-0.2,0.1-0.4,0.3-0.6,0.4c-0.5,0.3-1.1,0.7-1.7,1c-0.1,0.1-0.2,0.1-0.3,0.2c-0.6,0.3-0.5,0.2,0.3-0.1
									c-0.2,0.2-0.8,0.3-1.1,0.4c-0.7,0.2-1.5,0.4-2.2,0.6c-0.2,0-0.5,0.1-0.8,0.1c1.5-0.5,0.1,0-0.4,0c-0.8,0-1.5,0-2.3-0.1
									c-1.3-0.1,1.2,0.3,0,0c-0.3-0.1-0.6-0.1-0.9-0.2c-0.3-0.1-0.6-0.2-0.9-0.3c-0.1,0-0.2-0.1-0.4-0.1c-0.6-0.2-0.5-0.2,0.3,0.1
									c-0.3,0.2-1.9-1.1-2.2-1.2c-1-0.6,0.9,0.9,0,0c-0.2-0.2-0.3-0.3-0.5-0.5c-0.4-0.4-0.9-1.2-1.4-1.5c0.2,0.2,0.3,0.4,0.5,0.6
									c-0.1-0.2-0.3-0.4-0.4-0.6c-0.2-0.3-0.4-0.6-0.6-0.9c-0.4-0.6-0.7-1.2-1-1.9c-0.6-1.1,0.4,1.2,0,0c-0.1-0.3-0.3-0.7-0.4-1
									c-0.2-0.7-0.5-1.4-0.7-2.1c-0.4-1.4-0.7-2.8-1-4.2c-0.2-1.3-0.4-2.5-0.6-3.8c-0.3-1.7,0.1,1.1-0.1-0.5
									c-0.1-0.5-0.1-1-0.2-1.5c-0.1-1.1-0.2-2.2-0.2-3.3c-0.2-3.9-0.1-7.8,0.3-11.7c0.1-0.5,0.1-1,0.2-1.5c-0.2,1.3,0-0.3,0.1-0.5
									c0.1-0.8,0.3-1.6,0.4-2.5c0.4-2.1,0.9-4.2,1.4-6.3c1-3.7,2.2-7.3,3.6-10.9c0-0.1,0.7-1.7,0.2-0.5c0.2-0.5,0.4-0.9,0.6-1.4
									c0.4-0.9,0.8-1.8,1.3-2.7c0.9-1.8,1.8-3.5,2.7-5.3c1.5-2.8,3.2-5.5,5-8.1c0.9-1.4,1.9-2.8,2.9-4.1c0.4-0.6,0.8-1.1,1.3-1.7
									c0.9-1.1-0.7,0.9,0.2-0.2c0.4-0.4,0.7-0.9,1.1-1.3c4.2-5.1,8.8-9.9,13.8-14.2c1.2-1.1,2.5-2.1,3.7-3.1c0.7-0.5-1.1,0.8,0,0
									c0.3-0.3,0.7-0.5,1-0.8c0.8-0.6,1.6-1.2,2.4-1.7c2.6-1.8,5.4-3.5,8.2-5.1c1.5-0.8,2.9-1.6,4.5-2.3c0.6-0.3,1.3-0.6,1.9-0.9
									c0.4-0.2,0.8-0.3,1.1-0.5c0.6-0.2,0.5-0.2-0.2,0.1c0.3-0.1,0.5-0.2,0.8-0.3c3.1-1.2,6.2-2.3,9.5-3.1c1.5-0.4,3-0.7,4.5-1
									c0.8-0.1,1.5-0.3,2.3-0.4c0.3-0.1,0.7-0.1,1-0.2c0.3,0,0.6-0.1,0.8-0.1c-0.8,0.1-0.9,0.1-0.2,0c3.4-0.4,6.8-0.6,10.3-0.5
									c1.7,0,3.4,0.2,5.1,0.4c0.2,0,1.8,0.2,0.4,0c0.5,0.1,0.9,0.1,1.4,0.2c0.9,0.1,1.8,0.3,2.8,0.5c3.7,0.8,7.3,1.8,10.7,3.2
									c0.4,0.2,0.9,0.3,1.3,0.5c-1.2-0.5,0.2,0.1,0.4,0.2c0.7,0.3,1.4,0.6,2.1,1c1.7,0.8,3.3,1.7,4.9,2.7c1.6,1,3.2,2,4.7,3.1
									c0.6,0.5,1.3,0.9,1.9,1.4c-1-0.8,0.2,0.2,0.3,0.3c0.5,0.4,1,0.8,1.4,1.2c2.9,2.4,5.6,5.1,8.2,7.8c1.2,1.3,2.4,2.6,3.5,3.9
									c0.6,0.7,1.2,1.5,1.8,2.2c0.2,0.2,0.4,0.5,0.6,0.7c0.1,0.2,1.4,1.8,0.6,0.7c4.4,5.8,8.2,12,11.3,18.6c1.2,2.7,5.3,3.5,7.7,2
									C473.1,60,473.7,57,472.3,54.1z"/>
							</g>
						</g>
					</g>
				</g>
			</g>
			<g>
				<g>
					<g>
						<g>
							<path d="M387.4,280.4c-2.6-1.2-6.4-1.1-8.9-0.9c-3.2,0.2-6.5,1.1-9.4,2.5c-6,3-10.9,8.2-12.8,14.7
								c-3.9,12.8,3,28.1,16.3,31.9c8.6,2.4,18.3,0,24.7-6.3c6.2-6.5,8.6-16,6.5-24.8C401.8,288.9,395.8,282.8,387.4,280.4z"/>
						</g>
					</g>
				</g>
			</g>
			<g>
				<g>
					<g>
						<g>
							<g>
								<path d="M390.2,275.5c-6.2-2.8-14.3-2.2-20.5,0.2c-6.4,2.5-11.8,6.7-15.6,12.5c-6.2,9.7-5.7,22.8,0.1,32.5
									c2.8,4.7,7,8.9,11.9,11.3c6.1,3,12.8,3.7,19.4,2.4c6.1-1.1,12.5-4.4,16.6-9.2c4.6-5.3,7.2-11.7,7.9-18.6
									c0.7-6.8-0.9-14.3-4.8-20c-3.9-5.8-9.6-9.7-16.3-11.7c-2.8-0.8-6.2,1-6.9,3.9c-0.7,3,0.9,6,3.9,6.9c0.6,0.2,1.1,0.4,1.7,0.6
									c0.2,0.1,0.5,0.2,0.7,0.3c0.8,0.3-1.2-0.6-0.1,0c1,0.5,2,1,3,1.7c0.3,0.2,1,0.5,1.2,0.9c-0.3-0.5-0.7-0.6-0.3-0.2
									c0.2,0.2,0.5,0.4,0.7,0.6c0.8,0.8,1.5,1.6,2.3,2.4c0.5,0.6-0.8-1.1-0.1-0.1c0.1,0.2,0.3,0.4,0.4,0.6
									c0.3,0.4,0.5,0.8,0.8,1.3c0.3,0.4,0.5,0.9,0.7,1.3c0.1,0.3,0.3,0.6,0.4,0.9c0.3,0.6-0.4-1.1,0-0.1c0.4,1.2,0.8,2.3,1,3.5
									c0.1,0.4,0.5,1.4,0.3,1.7c0.2-0.5-0.1-0.9,0-0.2c0,0.4,0.1,0.9,0.1,1.3c0.1,1.2,0.1,2.5-0.1,3.7c0,0.3-0.1,0.6-0.1,0.9
									c-0.1,0.9,0.3-1.4,0,0c-0.1,0.7-0.3,1.4-0.4,2.1c-0.3,1-0.5,2.5-1.1,3.3c0.6-0.9,0.2-0.5,0.1-0.1c-0.2,0.3-0.3,0.7-0.5,1
									c-0.3,0.6-0.6,1.2-0.9,1.7c-0.3,0.6-0.7,1.1-1.1,1.6c-0.2,0.3-0.8,1,0,0.1c-0.2,0.2-0.4,0.5-0.6,0.7
									c-0.8,0.9-1.8,2.1-2.8,2.7c1.1-0.6-0.3,0.2-0.6,0.4c-0.5,0.4-1.1,0.7-1.7,1c-0.6,0.3-1.1,0.6-1.7,0.9
									c-0.3,0.1-0.8,0.5,0.2-0.1c-0.3,0.2-0.8,0.3-1.2,0.4c-1.1,0.4-2.2,0.7-3.3,0.9c-0.3,0.1-0.6,0.1-0.8,0.2
									c-1.4,0.3,0.9-0.1,0,0c-0.7,0-1.4,0.1-2.1,0.1c-0.3,0-3.6,0.1-3.6-0.2c0,0,1.4,0.2,0.2,0c-0.3-0.1-0.6-0.1-0.8-0.2
									c-0.7-0.1-1.4-0.3-2-0.5c-0.5-0.2-1.1-0.4-1.6-0.5c-0.7-0.2,1,0.5,0.3,0.1c-0.2-0.1-0.4-0.2-0.7-0.3c-1-0.5-2-1.1-3-1.7
									c-0.1-0.1-0.6-0.4-0.6-0.4c0,0,1.1,0.9,0.3,0.2c-0.4-0.3-0.7-0.6-1.1-0.9c-0.8-0.8-1.5-1.6-2.3-2.5
									c-0.5-0.5,0.6,0.9,0.2,0.3c-0.2-0.2-0.4-0.5-0.5-0.7c-0.3-0.4-0.5-0.8-0.8-1.2c-0.6-0.9-1-1.9-1.5-2.8
									c-0.5-0.9,0.2,0.3,0.1,0.3c0-0.1-0.3-0.7-0.3-0.8c-0.2-0.5-0.4-1-0.5-1.5c-0.3-1-0.6-2.1-0.8-3.2c0-0.1-0.1-0.6-0.1-0.7
									c0.3,0.3,0.1,1.2,0.1,0.4c0-0.5-0.1-1.1-0.1-1.6c-0.1-1.1,0-2.2,0-3.2c0-0.3,0.1-0.6,0.1-0.9c0.1-0.7,0.3,0-0.1,0.4
									c0.2-0.2,0.2-1.1,0.3-1.4c0.2-1.1,0.6-2.2,0.9-3.3c0.4-1.3-0.4,0.7,0,0c0.2-0.3,0.3-0.6,0.4-0.9c0.3-0.6,0.7-1.2,1-1.8
									c0.4-0.6,0.7-1.3,1.2-1.7c-0.8,0.8-0.3,0.4-0.1,0.1c0.3-0.3,0.5-0.6,0.8-0.9c0.8-0.9,1.9-2.3,3.1-2.8
									c-0.9,0.4-0.5,0.3-0.1,0.1c0.3-0.2,0.7-0.5,1-0.7c0.6-0.4,1.2-0.7,1.8-1.1c0.2-0.1,0.5-0.3,0.7-0.4c0.1-0.1,1.6-0.7,0.4-0.2
									c0.8-0.3,1.5-0.6,2.3-0.8c0.8-0.2,1.6-0.4,2.4-0.6c0.3-0.1,0.6-0.1,1-0.2c-1,0.2,0,0,0.4,0c1.2-0.1,2.5-0.1,3.7-0.1
									c0.4,0,0.7,0,1.1,0.1c1.1,0-0.7-0.2,0,0c0.3,0.1,0.7,0.1,1,0.2c0.3,0.1,1.5,0.6,0.2,0c2.7,1.2,6.1,0.9,7.7-2
									C393.5,280.8,393.1,276.8,390.2,275.5z"/>
							</g>
						</g>
					</g>
				</g>
			</g>
		</g>
		<g>
			<g>
				<g>
					<g>
						<path d="M302.2,1316c4.3-6.4,7-14,13.3-19.6c2.9-2.8,6-5.1,9.2-7c9.7-5.6,20.6-6.6,31.5,3.3c23.5,21.9,24.6,62.3,5.5,87.1
							c-7.4,10.1-18.1,14.3-29.1,13.9c-3.7-0.1-7.4-0.8-11-1.9c-31.1-7.9-34.4-45.6-22.5-69.5C300,1320.1,301,1318.1,302.2,1316z"/>
					</g>
				</g>
			</g>
			<g>
				<path d="M374.4,1331.5c-2.3-19.8-19.2-32.3-27.6-49.7c-1-1.6-2-3.3-3-4.9c-1-1.7-1.9-3.3-2.8-5c-16.7-30.2-26.3-65.2-17.6-99.4
					c8.6-33.6,31.9-60.8,62-77.3c15.1-8.3,31.5-14,48.4-17.1c4.2-0.8,8.9-0.7,12.4-3.5c3.3-2.6,6.3-6.7,7.1-10.9
					c1.9-9.5-4.8-19.5-14.8-20.2c-5.1-0.4-10.5,1.1-15.4,2.3c-4.7,1.1-9.3,2.5-13.9,4c-8.9,3-17.6,6.5-26,10.6
					c-17,8.3-33,19-46.8,31.9c-6.7,6.2-12.8,12.9-18.4,20.1c-12.9,16.3-22,35.1-26.4,55.5c-4,18.3-4,37.4-0.9,55.8
					c3.9,23,12.3,44.9,23.3,65.4c1.8,3.4,3.7,6.8,5.7,10.2c3.7,7,8,13.3,12.5,19.6c1,1.5,2.1,3,3.1,4.5l3.2,0.3l0,0
					c0,0,4.3,0.4,10,1c8.2-0.2,15.7,2,23.5,5.6L374.4,1331.5z"/>
				<g>
					<g>
						<g>
							<path d="M330.3,1394c-5.2-0.5-10.3-1.9-15.3-4.2c-37-18.9-24.4-69.8,0.8-94.4c3.1-2.8,6.4-5.2,9.8-7
								c3.4-1.8,6.9-3.1,10.6-3.5c7.2-0.8,14,1.7,20.4,7.5c11.3,10.5,18,25.7,18.9,42.8c0.9,16.5-4,32.9-13.3,45
								c-5.9,8.2-14.4,13-24.5,13.9C335.3,1394.3,332.8,1394.3,330.3,1394z M340.8,1285.8c-1.5-0.1-3-0.1-4.5,0
								c-3.5,0.4-7,1.6-10.3,3.4c-3.3,1.8-6.6,4.2-9.6,6.9c-24.7,23.9-38.8,78.7,2.5,94.2c3,1.1,6.2,2,9.3,2.4
								c3.1,0.5,6.3,0.6,9.3,0.3c9.8-0.9,18-5.6,23.8-13.5c19.8-25.7,17.3-65.3-5.5-86.5C351.1,1288.7,346.1,1286.3,340.8,1285.8z"
								/>
						</g>
					</g>
				</g>
			</g>
		</g>
		<g>
			<g>
				<g>
					<g>
						<path d="M925.7,1777.6c-0.1-0.7-0.2-1.4-0.4-2.1c-0.4-1.5-0.9-3.1-1.7-4.6c-1.1-2.1-2.5-4.2-4.1-6c-3-3.3-6.6-5.9-10.5-8
							c-3.8-2-7.6-3.8-11.7-4.8c-4.1-1.1-8.3-1.8-12.5-2c-4.2-0.2-8.5,0.1-12.7,0.7c-3.4,0.5-6.7,1.3-9.9,2.4
							c-3.4,1.1-6.7,2.3-9.9,3.8c0.3-1,0.6-2,0.9-3c3.4-11.8,6.6-23.7,9.8-35.6c3.2-11.8,6.3-23.7,9.4-35.6
							c3.1-11.8,6.1-23.7,9.2-35.5c3.1-11.8,6.2-23.6,9.3-35.5c0.4-1.5,0.8-2.9,1.2-4.4c0.7-2.7,0.8-5.4-0.4-7.9
							c-1.1-2.2-3.4-4.4-5.8-5.1c-2.6-0.8-5.5-0.9-7.9,0.4c-2.2,1.2-4.5,3.2-5.1,5.8c-3.2,11.8-6.3,23.6-9.4,35.4
							c-3.1,11.8-6.1,23.7-9.2,35.5c-3.1,11.9-6.2,23.7-9.3,35.6c-3.2,11.9-6.4,23.7-9.7,35.6c-3.3,11.9-6.8,23.7-10.4,35.5
							c-0.4,1.5-0.9,2.9-1.4,4.4c-0.8,2.6-0.8,5.5,0.4,7.9c0.8,1.7,2.3,3.3,4.1,4.4c0.1,0.1,0.1,0.1,0.2,0.2
							c1.7,1.5,3.8,2.6,5.8,3.7c4.2,2.2,8.4,4.1,13,5.5c3.7,1.1,7.5,1.8,11.4,2.5c2.8,0.5,5.6,1,8.4,1.4c5.6,0.8,11.2,1.4,16.9,1.3
							c3.6-0.1,7.3-0.3,10.9-0.9c3.4-0.6,6.7-1.6,9.9-2.8c6.5-2.5,12.1-7.1,16.4-12.6c1.5-1.9,2.6-3.9,3.6-6.1
							C925.9,1784.1,926,1780.9,925.7,1777.6z"/>
					</g>
				</g>
			</g>
		</g>
		<g>
			<g>
				<g>
					<g>
						<g>
							<path d="M928,1777.2c-0.5-5.6-3.9-11-7.8-14.9c-4-4-8.7-6.8-13.8-9.2c-11-5.2-23.6-6.4-35.6-4.3c-6.7,1.1-13.3,3.4-19.5,6.3
								c1.1,1,2.2,1.9,3.2,2.9c4.8-16.9,9.5-33.9,14-50.9c4.5-16.9,8.9-33.9,13.3-50.9c2.2-8.5,4.4-17.1,6.7-25.6
								c1.1-4.2,2.2-8.4,3.3-12.6c0.6-2.2,1.2-4.3,1.7-6.5c0.5-2,1.2-4,1.4-6.1c0.4-4.1-1.2-8-4.2-10.7c-2.8-2.5-6.8-3.5-10.5-2.9
								c-3.5,0.6-7,3.1-8.7,6.3c-1,1.8-1.3,3.9-1.9,5.9c-0.6,2.2-1.2,4.3-1.7,6.5c-4.5,16.9-8.9,33.8-13.3,50.8
								c-4.4,17-8.9,34.1-13.4,51.1c-4.6,17-9.3,33.9-14.2,50.8c-1.2,4.1-2.5,8.3-3.7,12.4c-1.2,4-3,8-2.5,12.2
								c0.2,1.9,0.9,3.8,2,5.4c1.1,1.6,2.5,2.7,3.9,3.8c1.5,1.2,3,2.3,4.8,3.2c1.8,1,3.7,1.9,5.5,2.8c3.8,1.8,7.7,3.3,11.8,4.4
								c4.2,1.1,8.5,1.8,12.7,2.5c8.5,1.4,17,2.4,25.6,1.9c8.1-0.4,16.3-2.1,23.4-6.2c6.5-3.8,12.2-9.5,15.6-16.3
								C928,1785.4,928.3,1781.4,928,1777.2c-0.1-1.3-1.6-2.1-2.8-1.8c-1.4,0.3-1.9,1.5-1.8,2.8c0.1,1.9,0.1,3.8-0.2,5.6
								c-0.4,1.8-1.2,3.5-2.1,5.1c-1.8,3-4.1,5.6-6.6,8c-5.3,4.9-11.9,7.8-18.9,9.3c-7.9,1.7-16.3,1.4-24.3,0.5c-4-0.5-8-1.1-12-1.8
								c-3.9-0.7-7.8-1.4-11.6-2.6c-3.8-1.2-7.4-2.8-11-4.5c-1.6-0.8-3.2-1.6-4.8-2.6c-0.7-0.4-1.4-0.9-2-1.5c-0.6-0.6-1.4-1-2-1.6
								c-2.5-2.3-3-5.5-2-8.7c1.2-4.1,2.5-8.1,3.7-12.2c4.8-16,9.3-32.1,13.7-48.2c4.4-16.3,8.7-32.6,12.9-48.9
								c4.2-16.2,8.4-32.4,12.6-48.6c1.1-4,2.1-8.1,3.2-12.1c1.1-4,2-8.1,3.2-12c0.8-2.7,3.8-4.8,6.6-5c3.1-0.2,6.2,1.3,7.7,4.1
								c1.8,3.4,0.4,7-0.6,10.4c-1.1,4-2.2,8.1-3.2,12.1c-2.1,8.1-4.2,16.2-6.3,24.2c-4.2,16.3-8.4,32.6-12.7,48.8
								c-4.3,16.2-8.6,32.5-13.1,48.6c-1.1,3.9-2.2,7.8-3.3,11.8c-0.6,2,1.3,3.8,3.2,2.9c10.2-4.7,21.3-7.4,32.6-6.7
								c10.4,0.7,21.1,4.5,29,11.3c4.2,3.6,7.8,8.6,8.3,14.2c0.1,1.3,1.6,2.1,2.8,1.8C927.5,1779.7,928.1,1778.4,928,1777.2z"/>
						</g>
					</g>
				</g>
			</g>
		</g>
		<g>
			<g>
				<g>
					<g>
						<path d="M712,1750.6c-2.5-12-4.9-24.1-7.2-36.2c-2.3-12-4.5-24.1-6.7-36.2c-2.2-12-4.4-24.1-6.6-36.1c-2.2-12-4.4-24-6.7-36
							c-0.3-1.5-0.6-3-0.9-4.5c-0.5-2.4-2.7-4.9-4.7-6.1c-2.2-1.3-5.4-1.8-7.9-1c-2.5,0.8-4.9,2.3-6.1,4.7c-0.3,0.8-0.7,1.6-1,2.4
							c-0.5,1.8-0.5,3.6,0,5.4c2.3,12,4.5,24,6.7,36c2.2,12,4.4,24.1,6.6,36.1c2.2,12.1,4.4,24.1,6.7,36.2
							c2.3,12.1,4.6,24.1,7.1,36.2c0.5,2.5,1,5,1.6,7.5c-4.6-2.6-9.6-4.8-14.6-6.4c-15.5-4.9-32.8-3.7-46.9,4.7
							c-4.2,2.5-8,6.1-10.6,10.2c-1.5,2.5-2.3,5.1-2.7,7.9c-0.2,1.2-0.3,2.3-0.2,3.5c0.2,1.7,0.3,3.4,1,4.9
							c2.9,7.5,8.4,13.7,15.2,18c2.9,1.9,6.2,3.3,9.5,4.4c2.5,0.9,5.2,1.5,7.8,1.9c6.5,1,12.9,1.4,19.5,1.1c5.5-0.2,11-0.8,16.5-1.4
							c4.6-0.5,9-1.4,13.4-2.9c2.6-0.8,5.1-1.9,7.6-3c2.2-1,4.8-2,6.6-3.7c1.6-0.9,3-2.1,3.9-3.7c1.3-2.5,1.7-5.1,1-7.9
							C717.1,1774.7,714.5,1762.6,712,1750.6z"/>
					</g>
				</g>
			</g>
		</g>
		<g>
			<g>
				<g>
					<g>
						<g>
							<path d="M714.2,1749.9c-4.6-22.5-8.9-45.1-13.1-67.8c-4.1-22.5-8.2-45.1-12.4-67.6c-0.5-2.7-1-5.5-1.6-8.2
								c-0.5-2.6-0.7-5.4-1.9-7.7c-2.2-4.3-6.9-7-11.7-6.9c-2.3,0.1-4.7,0.9-6.6,2.2c-1,0.7-1.8,1.4-2.6,2.3c-0.9,1.1-1.4,2.3-2,3.7
								c-1.1,2.7-0.9,5.3-0.3,8.2c0.5,2.7,1,5.5,1.6,8.2c4.3,22.5,8.3,45.1,12.4,67.6c4.1,22.6,8.4,45.2,13,67.8
								c0.5,2.7,1.1,5.3,1.6,8c1.1-0.9,2.3-1.8,3.4-2.6c-14.8-8.3-32.1-12-48.7-7.9c-7.9,1.9-16,5.5-21.8,11.3
								c-6.1,6-9.8,15-7.1,23.5c2.3,7.4,7.9,13.8,14,18.3c7.2,5.3,16,7.8,24.8,8.8c9.4,1.1,18.7,0.5,28.1-0.4
								c4.7-0.5,9.3-1,13.9-2.2c4.5-1.1,8.7-2.8,12.9-4.6c1.8-0.8,3.6-1.6,5.2-2.8c1.6-1.2,3.4-2.2,4.6-3.8c1.3-1.7,2.2-3.7,2.5-5.9
								c0.3-2.3,0-4.4-0.5-6.6c-2.1-9.3-4.2-18.7-6.1-28C715.2,1754.5,714.7,1752.2,714.2,1749.9c-0.3-1.2-1.7-2-2.9-1.6
								c-1.3,0.4-1.9,1.6-1.6,2.9c1.8,8.7,3.6,17.4,5.6,26c0.5,2.2,1,4.4,1.5,6.5c0.4,1.9,1.1,3.9,1,5.8c0,1.7-0.6,3.5-1.6,4.8
								c-0.5,0.6-1,1.1-1.6,1.5c-0.8,0.5-1.5,1.1-2.3,1.6c-1.5,1-3.3,1.7-4.9,2.5c-1.9,0.8-3.9,1.7-5.9,2.4c-4,1.4-8.1,2.4-12.2,3
								c-4.2,0.6-8.5,1-12.8,1.3c-4.4,0.3-8.8,0.5-13.3,0.4c-8.4-0.3-16.8-1.5-24.4-5.2c-6.3-3.1-11.8-8-15.4-14.1
								c-1.8-3.1-3.3-6.6-3.1-10.3c0.2-3.8,1.5-7.4,3.7-10.4c4.3-6,11.2-9.7,18.1-12c14.5-4.9,30.3-3.2,44.1,3.2
								c1.9,0.9,3.8,1.8,5.6,2.9c1.9,1,3.9-0.7,3.4-2.7c-4.5-21.7-8.6-43.5-12.7-65.2c-4-21.8-7.9-43.6-12-65.4
								c-1-5.5-2-10.9-3.1-16.4c-0.2-1.3-0.5-2.6-0.7-3.9c-0.2-1.3-0.6-2.5-0.5-3.9c0.1-2,1.2-4.2,2.8-5.4c3-2.4,7.5-2.4,10.4,0.3
								c0.7,0.7,1.4,1.4,1.8,2.3c0.5,1.1,0.7,2.3,0.9,3.4c0.5,2.6,1,5.3,1.5,7.9c4.1,21.8,8,43.5,12,65.3c4,21.9,8.1,43.7,12.5,65.5
								c0.6,2.7,1.1,5.5,1.7,8.2c0.3,1.2,1.7,2,2.9,1.6C713.9,1752.5,714.5,1751.2,714.2,1749.9z"/>
						</g>
					</g>
				</g>
			</g>
		</g>
		<path class="st0" d="M1183.9,162.3c-16.2-8.1-32.4-14.8-48.6-20.6c-16.2-5.8-32.4-10.6-48.5-14.7c-155.1-37.9-320.6-43-475.1,1.4
			c-18.8,7.9-36.6,17.7-53,29.8c-16.4,12.1-31.5,26.5-44.9,43.6c-14,23.5-21.8,52.6-23,85.5c-2.5,56.6-4.5,112.5-8,167.7
			c-3.5,55.2-8.4,109.7-16.5,163.3c-2.4,26.9-5.1,53.7-8.1,80.3c-2.9,26.6-6.1,53.2-9.5,79.6c-18.4,157.7-36.8,315.3-60.4,470.8
			c-2.9,19.4-6,38.8-9.1,58.2c-8.3,92.1-53.4,214,38.7,299c59.6,54.6,133.1,45,197.9,56.2c15.1,1.4,30.1,2.5,45.2,3.7
			c15.1,1.2,30.1,2.5,45.3,4.1c13.7,1.2,27.3,2.2,40.9,3c67.9,4.1,134.9,3.7,202.3,1.2c35.7-4.2,76.7-5.7,112.1-16.3
			c31.8-9.1,61.6-26.6,71.8-62.1c89.5-337.1,126.9-696.6,169.8-1056.7c2.5-21.4,4.2-43.1,5.3-65.1c1.1-22,1.5-44.2,1.3-66.5
			c0.4-19.6,0.6-42.2-0.9-65.4c-1.5-23.2-4.6-47-10.9-69.1c-6.3-22.2-15.6-42.8-29.5-59.7c-4.6-5.6-9.8-10.9-15.5-15.6
			c-12.4-10.7-26.4-16.8-40.5-22.9C1203.4,170,1193.8,165.7,1183.9,162.3z"/>
		<g>
			<path class="st0" d="M1189.8,148.9c-69.7-31.4-146.4-43.7-221.7-53.8c-73.7-10-148.6-14.5-222.7-6.2
				c-36.3,4.1-72.3,11-107.3,21.7c-35,10.8-69.8,24-97.5,48.7c-54.4,48.5-58.6,124.9-63.3,192.8c-11.4,163-24.9,325.9-42.2,488.4
				c-8.6,80.4-16.8,161.2-29.4,241.1c-12.3,77.9-28.5,155.1-39.4,233.2c-6.5,46.7-15.1,93.4-14.3,140.8
				c0.8,50.5,12.6,103.3,49.5,140.1c21.3,21.3,49.1,35.1,77.1,45.4c30.8,11.4,63.1,17.9,95.5,22.6c31.2,4.5,62.5,7.2,93.9,10.3
				c35.4,3.5,70.6,8.8,106,12.2c78,7.4,158.4,9.8,235.8-3.8c30.1-5.3,60.5-14.7,85.2-33.3c25-18.7,43-45.3,54.5-74.1
				c6.6-16.5,10.1-33.6,13.5-50.9c3.9-19.4,7.7-38.7,11.6-58.1c7.7-38.3,15.4-76.7,23.1-115c15.4-77,30.5-154.2,44.4-231.5
				c28.2-156.1,51.6-313.2,64.4-471.3c3.3-40.6,5.8-81.2,7.6-121.9c1.7-40,1.6-79.9,2.7-119.9c1.9-71.7,7-157.7-50.6-210.6
				C1243.8,175.4,1217,161.3,1189.8,148.9c-12.3-5.6-23.1,12.6-10.7,18.3c27.3,12.5,54.8,26.4,76.3,47.7
				c25.9,25.7,35.2,60.1,38.7,95.5c3.7,37.7,1.7,75.6,1,113.3c-0.8,38.7-1,77.4-2.9,116.1c-7.5,155.7-26.5,310.6-51.7,464.4
				c-24.6,150.4-55,299.7-85,449c-3.7,18.4-7.4,36.9-11.1,55.3c-3.5,17.3-6.3,34.8-12.1,51.5c-9.4,27.5-26.2,54.5-49.9,71.9
				c-24,17.7-53.4,25.8-82.5,30.6c-37.6,6.2-76,8-114.1,8.1c-39,0-78-2.3-116.8-6.1c-33.9-3.3-67.6-8.4-101.5-11.8
				c-61.8-6.1-124.9-10.4-183.7-32.1c-26.3-9.7-52.4-23.2-71.6-44.1c-15.8-17.2-25.9-38.6-31.8-61c-12.2-46.4-8-96.1-1.6-143.1
				c8.3-60.9,18-121.7,29-182.1c7-38.3,14.1-76.5,19.9-115c5.8-38.3,10.2-76.7,14.8-115.2c18.8-157.4,33.6-315.2,45.9-473.2
				c3-39.1,5.9-78.2,8.7-117.3c2.5-36.3,4-73.2,11.8-108.8c7.1-32.5,19.8-62.1,44.7-85c25.8-23.8,59.7-35.8,92.7-45.8
				c138.9-41.9,287.5-23.6,427.2,4.1c36.1,7.1,71.9,17.7,105.5,32.9C1191.4,172.7,1202.2,154.5,1189.8,148.9z"/>
		</g>
		<g>
			<path class="st1" d="M532.4,347.8c2.9,154.6-8.3,309.1-25.7,462.6c-17.3,152.3-39.6,304.2-61.9,455.9
				c-12.6,85.8-19.2,172.4-32,258.2c-0.8,5.6,1.4,11.4,7.4,13c5,1.4,12.2-1.7,13-7.4c11.4-76.6,17.3-153.8,27.9-230.5
				c10.5-76.3,22-152.5,32.8-228.8c10.9-77.1,21.5-154.3,30.6-231.6c9.1-76.7,16.7-153.6,22-230.6c5.3-77.1,8.1-154.4,7.5-231.7
				c-0.1-9.7-0.2-19.4-0.4-29.1C553.3,334.2,532.1,334.1,532.4,347.8L532.4,347.8z"/>
		</g>
		<g>
			<path class="st1" d="M671.4,407.5c-3.9,41.1-8.2,82.1-12.7,123.1c-4.5,40.9-9.4,81.7-14.6,122.5c-2.9,23-5.9,46-9,68.9
				c0.1-0.9,0.3-1.9,0.4-2.8c-0.3,2.6-0.7,5.1-1,7.7c-0.4,3-0.5,5.5,1.1,8.2c1.3,2.2,3.8,4.3,6.3,4.9c2.7,0.6,5.8,0.5,8.2-1.1
				c2.1-1.4,4.5-3.7,4.9-6.3c5.8-42.8,11.3-85.6,16.5-128.5c5-41.9,9.8-83.8,14.1-125.7c2.5-23.6,4.8-47.2,7.1-70.8
				c0.2-2.5-1.4-5.7-3.1-7.5c-1.8-1.8-4.8-3.2-7.5-3.1c-2.7,0.1-5.6,1-7.5,3.1C672.5,402.2,671.7,404.5,671.4,407.5L671.4,407.5z"/>
		</g>
		<g>
			<path class="st1" d="M590.6,1076.4c-9.4,64.7-18.1,129.5-26.8,194.3c-4.3,32.2-8.7,64.4-13.2,96.6c-4.5,32.8-9.5,65.6-13.8,98.4
				c-4.7,36.2-9.2,72.3-13.4,108.6c-0.6,5.5,5.3,10.8,10.6,10.6c6.3-0.3,9.9-4.7,10.6-10.6c3.7-32,7.6-64,11.7-95.9
				c0.5-3.9,1-7.8,1.5-11.7c0.3-2,0.5-3.9,0.8-5.9c0.1-1,0.3-2,0.4-2.9c0.1-0.4,0.6-4.4,0.3-2.1c1.2-8.1,2.4-16.2,3.5-24.4
				c2.3-15.9,4.5-31.9,6.7-47.8c9-64.4,17.5-128.9,26.3-193.3c4.9-36.1,10-72.3,15.2-108.4c0.4-2.9,0.5-5.5-1.1-8.2
				c-1.3-2.2-3.8-4.3-6.3-4.9C598.6,1067.8,591.4,1070.5,590.6,1076.4L590.6,1076.4z"/>
		</g>
		<g>
			<path class="st1" d="M1187.1,423.6c-1.3,75.9-5,151.7-10.8,227.4c-5.8,75.3-13.6,150.5-23.3,225.4c-9.7,75.1-21.4,150-34.7,224.7
				c-13.3,74.9-28.3,149.4-44.6,223.7c-16.3,74.2-34.1,148.2-52.9,221.8c-2.3,9-4.6,18-7,27c-3.4,13.2,17,18.8,20.4,5.6
				c19.2-73.5,37.2-147.4,53.9-221.5c16.8-74.5,32.1-149.4,45.9-224.6c13.7-74.7,25.8-149.8,36-225.1
				c10.3-75.8,18.8-151.8,25.2-228.1c6.3-75.6,10.6-151.4,12.5-227.3c0.2-9.7,0.4-19.3,0.6-29C1208.5,410,1187.3,410,1187.1,423.6
				L1187.1,423.6z"/>
		</g>
		<g>
			<path class="st1" d="M802.4,412.5c-4.5,41.8-9,83.7-13.6,125.5c-4.7,41.6-9.5,83.1-14.7,124.7c-2.9,23.3-5.9,46.6-9,69.9
				c0.1-0.9,0.3-1.9,0.4-2.8c-0.8,6-1.6,11.9-2.4,17.9c-0.4,3-0.5,5.5,1.1,8.2c1.3,2.2,3.8,4.3,6.3,4.9c2.7,0.6,5.8,0.5,8.2-1.1
				c2.1-1.4,4.5-3.7,4.9-6.3c6.1-44.6,11.8-89.3,17.1-134.1c5.2-43.9,10.2-87.9,15-131.9c2.7-24.9,5.4-49.9,8-74.8
				c0.3-2.5-1.4-5.8-3.1-7.5c-1.8-1.8-4.8-3.2-7.5-3.1c-2.7,0.1-5.6,1-7.5,3.1C803.5,407.2,802.7,409.6,802.4,412.5L802.4,412.5z"/>
		</g>
		<g>
			<path class="st1" d="M715.1,1100.6c-10,63.7-21.9,127.1-32,190.8c-5,31.7-9.9,63.4-15.2,95c-5.3,31.8-10.7,63.6-16.1,95.4
				c-3.2,18.4-5.2,37-7.4,55.6c-2.1,18-4.2,36-6.4,54c-0.6,5.5,5.3,10.8,10.6,10.6c6.3-0.3,9.9-4.7,10.6-10.6
				c1.9-16.1,3.8-32.2,5.7-48.2c0.9-8,1.9-16.1,2.9-24.1c0.5-3.8,0.9-7.7,1.4-11.5c0.2-1.9,0.5-3.8,0.7-5.8c0.1-1,0.2-1.9,0.3-2.9
				c-0.4,2.4,0.3-1.6,0.4-2c5.4-31.5,10.7-63,16-94.5c10.6-63.2,20.2-126.5,31.1-189.7c6.1-35.5,12.3-71.1,17.9-106.7
				c0.9-5.4-1.4-11.7-7.4-13C723,1092.1,716,1094.8,715.1,1100.6L715.1,1100.6z"/>
		</g>
		<g>
			<path class="st1" d="M1056.7,434.6c-1.7,40.1-3.7,80.1-6.5,120.1c-2.7,40.1-6.1,80.1-10.4,120c-2.4,22.5-5.1,44.9-8.1,67.3
				c0.1-0.9,0.3-1.9,0.4-2.8c-1.1,8.5-2.3,17-3.6,25.4c-0.4,2.9-0.5,5.5,1.1,8.2c1.3,2.2,3.8,4.3,6.3,4.9c2.7,0.6,5.8,0.5,8.2-1.1
				c2.2-1.4,4.5-3.7,4.9-6.3c6.4-44,11.6-88.1,15.7-132.3c4.1-43.2,7.2-86.6,9.6-129.9c1.4-24.5,2.6-49,3.6-73.5
				c0.2-5.5-5-10.8-10.6-10.6C1061.4,424.3,1057,428.7,1056.7,434.6L1056.7,434.6z"/>
		</g>
		<g>
			<path class="st1" d="M962.8,1127.6c-9.2,58.4-18.8,116.8-28.5,175.1c-9.7,58.4-19.4,116.9-28.6,175.4
				c-5.2,33.1-10.3,66.2-15.4,99.3c-0.4,2.9-0.5,5.5,1.1,8.2c1.3,2.2,3.8,4.3,6.3,4.9c5,1.1,12.1-1.5,13-7.4
				c9-58.8,18.2-117.6,27.5-176.3c4.7-29.3,9.8-58.6,14.7-87.8c4.8-29,9.6-57.9,14.3-86.9c5.4-32.9,10.7-65.8,15.9-98.8
				c0.5-2.9,0.5-5.5-1.1-8.2c-1.3-2.2-3.8-4.3-6.3-4.9C970.7,1119.1,963.7,1121.8,962.8,1127.6L962.8,1127.6z"/>
		</g>
		<g>
			<path class="st1" d="M923.8,431c-4.4,40-8.6,80-12.9,120c-4.3,39.9-8.6,79.8-13.4,119.7c-2.7,22.5-5.5,45-8.5,67.4
				c0.1-0.9,0.3-1.9,0.4-2.8c-0.2,1.4-0.4,2.9-0.6,4.3c-0.4,3-0.5,5.5,1.1,8.2c1.3,2.2,3.8,4.3,6.3,4.9c2.7,0.6,5.8,0.5,8.2-1.1
				c2.1-1.4,4.5-3.7,4.9-6.3c5.6-41.3,10.6-82.8,15.2-124.2c4.5-40.5,8.8-81.1,13.1-121.6c2.4-22.8,4.9-45.6,7.4-68.4
				c0.3-2.5-1.4-5.8-3.1-7.5c-1.8-1.8-4.8-3.2-7.5-3.1c-2.7,0.1-5.6,1-7.5,3.1C924.8,425.8,924.1,428.1,923.8,431L923.8,431z"/>
		</g>
		<g>
			<path class="st1" d="M829.5,1132.9c-8.8,59.8-18.8,119.4-28.7,179c-10,60.3-19.8,120.7-27.9,181.3c-4.5,33.4-8.5,66.8-11.9,100.3
				c-0.6,5.5,5.3,10.8,10.6,10.6c6.2-0.3,10-4.7,10.6-10.6c3.1-29.9,6.6-59.8,10.5-89.6c0.5-3.6,0.9-7.2,1.4-10.8
				c0.1-0.9,0.2-1.8,0.4-2.7c-0.4,2.6,0.1-0.4,0.1-0.8c0.3-2.1,0.6-4.2,0.9-6.3c1-7.5,2.1-15,3.1-22.5c2.1-14.6,4.3-29.3,6.6-43.9
				c9.2-59.5,19.4-118.9,29.1-178.4c5.4-33.4,10.7-66.7,15.6-100.2c0.4-2.9,0.5-5.5-1.1-8.2c-1.3-2.2-3.8-4.3-6.3-4.9
				C837.5,1124.3,830.4,1127,829.5,1132.9L829.5,1132.9z"/>
		</g>
		<path class="st1" d="M1075.1,147.7c-75.4-13.8-152.6-23.5-229.8-25.2c-25.7-0.6-51.5-0.3-77.2,1.1c-88,6.3-216.1,8.5-237.3,103.7
			C509.6,322.6,661.2,321,733,346.6c29.1,6.4,58.5,12.1,88,17.3c29.5,5.2,59.1,9.8,88.8,14.1c16.8,0.9,33.1,1.2,49.4,1.2
			c54.2-0.2,107.4-3.5,159.8-9.8c13.1-1.6,26.1-3.4,39.1-5.3c29.2-0.4,61.7-11.1,84.3-29.8c11.3-9.4,20.2-20.8,24.9-33.9
			c21.6-94.6-91.5-124.2-161.8-143.2C1095.3,153.8,1085.2,150.7,1075.1,147.7z"/>
		<path class="st2" d="M1063.7,176.6c-144.1-28.2-297.3-43-438.7,1.7c-27.3,9.1-51.1,20.7-63.1,35c-12,14.4-12.3,31.6,7.5,51.9
			c14.8,15.2,33.6,21.1,51.1,26c24.7,6.9,49.5,13.2,74.1,18.9c33.7,6.1,67.9,11.9,102.2,16.7c17.2,2.4,34.4,4.6,51.7,6.4
			c82.7,9.2,166.2,16.6,249,2.6c8.1-1.5,17.2-2.9,26.7-4.5c9.5-1.6,19.4-3.3,29.2-5.4c23.7-3.6,47.4-10.4,66.3-27.6
			c14.1-13.7,17.6-34.6,5.1-49.6c-31-39.5-84.1-43-126.7-63C1087,182.1,1075.5,179.1,1063.7,176.6z"/>
		<g>
			<path class="st2" d="M556.6,356.3c2.9,154.6-8.3,309.1-25.7,462.6c-17.3,152.3-39.6,304.2-61.9,455.9
				c-12.6,85.8-19.2,172.4-32,258.2c-0.8,5.6,1.4,11.4,7.4,13c5,1.4,12.2-1.7,13-7.4c11.4-76.6,17.3-153.8,27.9-230.5
				c10.5-76.3,22-152.5,32.8-228.8c10.9-77.1,21.5-154.3,30.6-231.6c9.1-76.7,16.7-153.6,22-230.6c5.3-77.1,8.1-154.4,7.5-231.7
				c-0.1-9.7-0.2-19.4-0.4-29.1C577.6,342.7,556.4,342.6,556.6,356.3L556.6,356.3z"/>
		</g>
		<g>
			<path class="st2" d="M695.7,416c-3.8,42.3-8.5,84.4-12.8,126.6c-4.4,42.2-9,84.3-13.9,126.4c-2.8,23.8-5.6,47.6-8.6,71.3
				c-0.3,2.5,1.4,5.8,3.1,7.5c1.8,1.8,4.8,3.2,7.5,3.1c2.7-0.1,5.6-1,7.5-3.1c2-2.2,2.7-4.5,3.1-7.5c5.2-42.1,10.2-84.3,14.9-126.5
				c4.7-42.1,9.1-84.3,13.5-126.5c2.5-23.8,4.8-47.6,7-71.4c0.2-2.6-1.3-5.7-3.1-7.5c-1.8-1.8-4.8-3.2-7.5-3.1
				c-2.7,0.1-5.6,1-7.5,3.1C696.8,410.6,696,413,695.7,416L695.7,416z"/>
		</g>
		<g>
			<path class="st2" d="M614.6,1086.1c-0.9,8.1-1.8,16.2-2.8,24.3c-0.5,3.9-1,7.7-1.5,11.6c-0.3,1.9-0.5,3.9-0.8,5.8
				c0,0.3-0.5,3.5-0.1,1.1c-0.2,1.3-0.3,2.6-0.5,3.9c-2.2,16.1-4.5,32.2-6.9,48.2c-4.8,32.5-9.8,64.9-14.2,97.5
				c-0.5,3.9-1,7.8-1.5,11.7c-0.4,3.2,0.3-2.1-0.1,1.1c-0.1,1-0.3,1.9-0.4,2.9c-0.3,2.3-0.6,4.5-0.9,6.8c-1.2,8.7-2.4,17.4-3.5,26.1
				c-0.3,1.9-0.5,3.9-0.8,5.8c0.3-2.4-0.1,0.8-0.2,1.1c-0.1,1-0.3,1.9-0.4,2.9c-0.6,4.2-1.2,8.4-1.8,12.7
				c-1.1,8.1-2.3,16.2-3.4,24.3c-4.6,33-9.1,66-13.4,99c-4.8,36.7-9.4,73.4-13.6,110.1c-0.6,5.5,5.3,10.8,10.6,10.6
				c6.3-0.3,9.9-4.7,10.6-10.6c3.7-32.8,7.8-65.6,12-98.3c1.1-8.2,2.1-16.4,3.2-24.6c0.5-3.9,1-7.9,1.6-11.8c0.3-2,0.5-3.9,0.8-5.9
				c0-0.2,0.5-3.5,0.2-1.1c0.2-1.3,0.4-2.6,0.5-3.9c2.2-16,4.4-32.1,6.6-48.1c2.3-16.2,4.5-32.5,6.8-48.7c0.6-4.5,1.2-9,1.8-13.5
				c0.3-1.9,0.5-3.9,0.8-5.8c-0.3,2.4,0.1-0.8,0.1-1.1c0.2-1.3,0.3-2.6,0.5-3.9c1.2-8.7,2.5-17.4,3.6-26c0.5-3.9,1-7.8,1.5-11.7
				c0-0.3,0.5-3.5,0.1-1.1c0.1-1,0.3-1.9,0.4-2.9c0.3-2.3,0.6-4.5,0.9-6.8c1.1-7.7,2.2-15.5,3.3-23.2c2.3-16.1,4.8-32.1,7.2-48.2
				c5.5-36.6,10.9-73.3,14.9-110.1c0.6-5.5-5.3-10.8-10.6-10.6C618.9,1075.8,615.2,1080.2,614.6,1086.1L614.6,1086.1z"/>
		</g>
		<g>
			<path class="st2" d="M1211.1,431.9c-1.7,75.9-5.6,151.7-11.5,227.3c-5.9,75.3-13.8,150.4-23.6,225.3
				c-9.8,75.1-21.4,150-34.6,224.6c-13.2,74.8-28.1,149.4-44.3,223.6c-16.2,74.2-33.8,148.1-52.6,221.6c-2.3,9-4.6,18-7,27
				c-3.4,13.2,17,18.8,20.4,5.6c19.1-73.5,37-147.3,53.6-221.4c16.7-74.5,31.9-149.4,45.6-224.5c13.6-74.7,25.7-149.8,35.9-225
				c10.3-75.8,18.9-151.8,25.4-228c6.5-75.6,10.9-151.4,13.1-227.2c0.3-9.7,0.5-19.3,0.7-29C1232.6,418.2,1211.4,418.2,1211.1,431.9
				L1211.1,431.9z"/>
		</g>
		<g>
			<path class="st2" d="M825,420.2c-4,43.5-8.5,86.9-13.2,130.3c-4.7,43.1-9.8,86.3-15.1,129.3c-3,24.3-6.1,48.5-9.3,72.8
				c-0.3,2.5,1.4,5.8,3.1,7.5c1.8,1.8,4.8,3.2,7.5,3.1c2.7-0.1,5.6-1,7.5-3.1c0.6-0.7,1.1-1.4,1.7-2.1c1-1.7,1.4-3.4,1.4-5.3
				c5.7-43.2,11.1-86.5,16.2-129.8c5.1-43.1,9.9-86.3,14.3-129.5c2.5-24.3,4.9-48.7,7.1-73.1c0.2-2.6-1.4-5.7-3.1-7.5
				c-1.8-1.8-4.8-3.2-7.5-3.1c-2.7,0.1-5.6,1-7.5,3.1C826.1,414.9,825.3,417.2,825,420.2L825,420.2z"/>
		</g>
		<g>
			<path class="st2" d="M739.8,1095.8c-5,32.7-10.4,65.3-15.9,98c-5.5,32.5-11.1,64.9-16.6,97.4c-5.5,32.6-11,65.2-16,97.9
				c-5.1,32.8-9.9,65.6-15,98.3c-5.2,33.3-8.6,66.9-12.5,100.4c-0.5,4.1-1,8.2-1.4,12.3c-0.6,5.5,5.3,10.8,10.6,10.6
				c6.3-0.3,9.9-4.7,10.6-10.6c1.9-16.4,3.9-32.8,5.8-49.3c1-8.2,1.9-16.4,2.9-24.6c0.5-3.9,0.9-7.9,1.4-11.8c0.2-2,0.5-3.9,0.7-5.9
				c0.4-3.2-0.4,2.1,0.2-1.1c0.2-1.3,0.4-2.6,0.6-4c5.2-32.8,10.1-65.6,15.1-98.4c9.9-64.8,21.2-129.3,32.2-193.9
				c6.2-36.5,12.3-73.1,17.9-109.7c0.8-5.5-1.4-11.7-7.4-13C747.8,1087.2,740.7,1089.9,739.8,1095.8L739.8,1095.8z"/>
		</g>
		<g>
			<path class="st2" d="M1080.5,443.2c-2.2,39.4-4.4,78.8-7,118.2c-2.6,39.2-5.7,78.5-9.7,117.6c-2.3,22-4.8,44.1-7.8,66
				c0.1-0.9,0.3-1.9,0.4-2.8c-1.5,11.1-3.1,22.1-4.8,33.2c-0.4,2.9-0.5,5.5,1.1,8.2c1.3,2.2,3.8,4.3,6.3,4.9
				c2.7,0.6,5.8,0.5,8.2-1.1c2.2-1.4,4.5-3.7,4.9-6.3c6.8-44.1,11.9-88.4,15.9-132.8c4-43.8,6.9-87.6,9.5-131.5
				c1.5-24.5,2.8-49,4.2-73.5c0.3-5.5-5.1-10.8-10.6-10.6C1085.1,432.9,1080.8,437.3,1080.5,443.2L1080.5,443.2z"/>
		</g>
		<g>
			<path class="st2" d="M982.9,1132.4c-1.5,14.8-3.1,29.6-4.8,44.4c-0.4,3.7-0.8,7.4-1.3,11.1c-0.2,1.7-0.1,3.8-0.6,5.4
				c0.1-0.3,0.3-2.2,0-0.1c-0.1,0.4-0.1,0.9-0.2,1.3c-0.1,1-0.3,2.1-0.4,3.1c-1.1,7.4-2.2,14.7-3.3,22.1
				c-4.6,29.7-9.6,59.2-14.9,88.8c-5.3,29.5-10.8,59-16.2,88.5c-5.4,29.7-10.8,59.3-15.8,89c-5,29.7-9.7,59.4-13.7,89.2
				c-0.6,4.3-1.2,8.7-1.7,13c-0.3,2.5,1.4,5.8,3.1,7.5c1.8,1.8,4.8,3.2,7.5,3.1c2.7-0.1,5.6-1,7.5-3.1c2-2.2,2.7-4.5,3.1-7.5
				c0.2-1.8,0.5-3.6,0.7-5.3c0.1-0.9,0.2-1.8,0.4-2.7c0,0.1-0.2,1.8-0.1,0.6c0.1-0.6,0.2-1.2,0.2-1.8c0.5-3.8,1.1-7.7,1.6-11.5
				c1-7.4,2.1-14.8,3.2-22.1c2.2-14.9,4.6-29.7,7.1-44.5c4.9-29.6,10.2-59.1,15.6-88.6c5.4-29.5,10.9-59,16.2-88.5
				c5.3-29.7,10.5-59.4,15.2-89.2c2.4-15.5,4.9-31,6.7-46.6c1.7-14.8,3.4-29.6,4.9-44.5c0.4-3.7,0.8-7.4,1.1-11
				c0.6-5.5-5.3-10.8-10.6-10.6C987.3,1122.1,983.5,1126.5,982.9,1132.4L982.9,1132.4z"/>
		</g>
		<g>
			<path class="st2" d="M948,439.5c-4.1,41-8.5,81.9-13.1,122.8c-4.6,40.5-9.5,81.1-14.6,121.5c-2.8,22.6-5.7,45.3-8.7,67.9
				c-0.3,2.5,1.4,5.8,3.1,7.5c1.8,1.8,4.8,3.2,7.5,3.1c2.7-0.1,5.6-1,7.5-3.1c0.6-0.7,1.1-1.4,1.7-2.1c1-1.7,1.4-3.4,1.4-5.3
				c5.3-40.6,10.4-81.2,15.3-121.8c4.9-40.6,9.6-81.2,13.9-121.8c2.5-22.9,4.8-45.7,7.1-68.6c0.3-2.5-1.4-5.7-3.1-7.5
				c-1.8-1.8-4.8-3.2-7.5-3.1c-2.7,0.1-5.6,1-7.5,3.1C949.1,434.2,948.3,436.6,948,439.5L948,439.5z"/>
		</g>
		<g>
			<path class="st2" d="M856.3,1122.1c-5.2,31-10.4,62-15.6,92.9c-5.1,30.9-10.2,61.9-15.1,92.9c-4.9,31.2-9.8,62.4-14.4,93.6
				c-4.6,31.2-9,62.4-13.2,93.6c-4.3,31.7-8.2,63.4-11.6,95.2c-0.4,3.9-0.8,7.8-1.2,11.7c-0.6,5.5,5.3,10.8,10.6,10.6
				c6.2-0.3,10-4.7,10.6-10.6c3.2-31.2,6.9-62.3,11-93.4c0.2-1.9,0.5-3.7,0.7-5.6c0.1-0.9,0.2-1.9,0.4-2.8c-0.3,2.5,0.1-0.6,0.1-0.9
				c0.5-4,1.1-8.1,1.6-12.1c1.1-7.8,2.1-15.6,3.2-23.5c2.2-15.6,4.4-31.2,6.7-46.8c9-61.8,18.9-123.5,29.1-185.1
				c5.7-34.7,11.6-69.4,17.4-104.1c0.9-5.4-1.4-11.7-7.4-13C864.2,1113.5,857.3,1116.2,856.3,1122.1L856.3,1122.1z"/>
		</g>
		<g>
			<g>
				<path class="st0" d="M657,939.7c-6.3,13.2-11.7,26.8-18.2,39.9c-1.2,2.5-0.7,5.8,1.9,7.2c2.4,1.3,5.9,0.7,7.2-1.9
					c6.5-13.1,11.9-26.7,18.2-39.9c1.2-2.5,0.8-5.8-1.9-7.2C661.9,936.6,658.3,937.1,657,939.7L657,939.7z"/>
			</g>
			<g>
				<path class="st0" d="M694.8,948.4c-0.3,0.9-0.7,1.8-1.1,2.7c-0.1,0.2-0.2,0.4-0.3,0.6c0.2-0.5,0.2-0.6,0.1-0.2
					c-0.2,0.4-0.4,0.8-0.5,1.2c-0.8,1.7-1.6,3.5-2.4,5.2c-1.6,3.4-3.3,6.8-5,10.3c-3.5,7.3-6.9,14.7-9.1,22.5
					c-0.8,2.7,0.9,5.9,3.7,6.5c2.8,0.6,5.7-0.9,6.5-3.7c1.1-3.8,2.5-7.5,4-11.2c-0.4,0.9,0.1-0.2,0.2-0.5c0.2-0.4,0.4-0.9,0.6-1.3
					c0.4-0.9,0.8-1.7,1.2-2.6c0.8-1.8,1.7-3.6,2.5-5.3c3.4-7.1,7-14.1,9.8-21.5c1-2.6-1.1-5.9-3.7-6.5
					C698.2,944,695.8,945.6,694.8,948.4L694.8,948.4z"/>
			</g>
		</g>
		<g>
			<path class="st0" d="M982.7,979.9c-3.7,6.5-6.4,13.5-9.2,20.5c-0.7,1.7-1.3,3.4-2,5.1c-0.4,0.9-0.7,1.8-1.1,2.6
				c0.3-0.7,0-0.1-0.1,0.3c-0.2,0.4-0.4,0.9-0.6,1.3c-1.5,3.5-3.2,6.9-5.1,10.1c-1.4,2.4-0.6,5.9,1.9,7.2c2.5,1.3,5.8,0.7,7.2-1.9
				c3.8-6.7,6.7-13.9,9.6-21.1c0.7-1.7,1.3-3.4,2-5c0.3-0.9,0.7-1.7,1.1-2.6c0-0.1,0.5-1.3,0.3-0.7c-0.2,0.6,0.3-0.7,0.4-0.9
				c1.4-3.3,3-6.6,4.8-9.7c1.4-2.4,0.7-5.9-1.9-7.2C987.5,976.7,984.2,977.4,982.7,979.9L982.7,979.9z"/>
		</g>
		<g>
			<path class="st0" d="M1020.4,988.6c-1.2,3.5-2.6,6.9-4,10.4c-0.3,0.8-0.6,1.6-1,2.4c-0.6,1.6,0.4-0.9-0.3,0.6
				c-0.2,0.4-0.3,0.8-0.5,1.2c-0.7,1.7-1.5,3.5-2.3,5.2c-3,6.8-6.3,13.5-9.5,20.1c-1.2,2.5-0.8,5.8,1.9,7.2c2.4,1.3,5.9,0.8,7.2-1.9
				c6.8-13.8,13.4-27.8,18.6-42.4c0.9-2.6-1-5.9-3.7-6.5C1024,984.2,1021.4,985.8,1020.4,988.6L1020.4,988.6z"/>
		</g>
		<g>
			<g>
				<g>
					<g>
						<g>
							
								<ellipse transform="matrix(7.243938e-02 -0.9974 0.9974 7.243938e-02 -347.9719 1475.108)" class="st3" cx="619.1" cy="924.6" rx="49.1" ry="65.6"/>
						</g>
					</g>
				</g>
			</g>
		</g>
		<g>
			<g>
				<g>
					<g>
						<g>
							
								<ellipse transform="matrix(7.244395e-02 -0.9974 0.9974 7.244395e-02 -61.1927 1855.0117)" class="st3" cx="966.7" cy="960.4" rx="49.1" ry="65.6"/>
						</g>
					</g>
				</g>
			</g>
		</g>
		<g>
			<g>
				<g>
					<g>
						<g>
							<path d="M752.4,916.9c9.5,5.9,20.2,10.3,31.1,13.1c11,2.9,22.2,4,33.6,3.6c5.9-0.2,11.9-0.8,17.8-1.3
								c3.6-0.3,6.7-1.2,9.3-3.8c2.3-2.3,4-6,3.8-9.3c-0.2-3.4-1.3-6.9-3.8-9.3c-2.4-2.2-5.9-4.2-9.3-3.8
								c-12.2,1.1-24.4,2.2-36.6,0.6c1.2,0.2,2.3,0.3,3.5,0.5c-9-1.2-17.9-3.9-26.3-7.5c1,0.4,2.1,0.9,3.1,1.3
								c-4.5-1.9-8.8-4.1-12.9-6.7c-2.8-1.8-6.9-2.2-10.1-1.3c-3,0.8-6.4,3.2-7.9,6C744.3,905.3,746.2,913,752.4,916.9L752.4,916.9z
								"/>
						</g>
					</g>
				</g>
			</g>
		</g>
		<g>
			<g>
				<g>
					<g>
						<path d="M598.5,834.7c-3-19.4,10.4-37.5,29.7-40.4c19.4-3,37.5,10.4,40.4,29.7c3,19.4-10.4,37.5-29.7,40.4
							C619.6,867.4,601.5,854.1,598.5,834.7z"/>
					</g>
				</g>
			</g>
		</g>
		<g>
			<g>
				<g>
					<g>
						<ellipse transform="matrix(0.7607 -0.6491 0.6491 0.7607 -329.0644 837.1072)" cx="970.8" cy="864.8" rx="35.5" ry="35.5"/>
					</g>
				</g>
			</g>
		</g>
		<g>
			<g>
				<g>
					<g>
						<g>
							<g>
								<g>
									<path d="M1102,1164.7c-1.7,0.7-3.3,1.6-4.9,2.5c-9.4,5.4-19.1,10.8-29.2,15.6c-5,2.4-10.1,4.7-15.3,6.7
										c-41.8,16.4-94.8,18.2-130.2-13.2c-4.7-4-9.1-8.3-13.3-12.9c-8.3-9.2-15.4-19.6-21.2-30.4c-1.6-3-4.9-7.2-4.9-10.7
										c0,0.9,0.9,1.8,0.9,2.7c-7.2-17.1-11.7-34.2-15.3-52.2c0,0.9,0.9,1.8,0.9,2.7c0-7.2-4.5-14.4-11.7-14.4
										c-6.3,0-10.8,6.3-9.9,11.7c4,36.4,17.2,70.8,39.1,99.8c3.6,4.8,7.5,9.5,11.8,13.9c3.7,3.9,7.5,7.5,11.6,10.9
										c45.5,36.5,113.9,33.8,164.7,9.9c4.8-2.5,9.5-5.2,14.1-8c4.6-2.8,9.1-5.7,13.4-8.7c4.7-3.3,9.5-7,11.5-12.3
										c2-5.4-0.2-12.7-5.7-14.1C1106.4,1163.5,1104.1,1163.9,1102,1164.7z"/>
								</g>
							</g>
						</g>
					</g>
					<g>
						<g>
							<g>
								<g>
									<g>
										<path d="M1101.4,1162.6c-4.5,1.8-8.6,4.6-12.9,6.9c-4.3,2.4-8.6,4.7-13,7c-8.5,4.4-17.2,8.5-26.2,11.9
											c-14.3,5.3-29.3,8.8-44.5,10c-15.2,1.2-30.7,0.1-45.3-4.3c-7.2-2.1-14.1-5.1-20.7-8.8c-7-4-13.2-9-19.1-14.5
											c-6.9-6.4-13.2-13.6-18.7-21.2c-5.2-7.2-9.6-14.9-13.9-22.6c-0.8-1.5-1.7-3.1-1.7-4.8c-1.5,0-3,0-4.5,0
											c0.1,0.7,0.2,1.2,0.4,1.8c0.1,0.2,0.5,1.2,0.5,0.9c1.5-0.2,2.9-0.4,4.4-0.6c-7-16.8-11.7-34.4-15.3-52.2
											c-0.5-2.4-4.7-1.9-4.4,0.6c0.1,0.7,0.2,1.2,0.4,1.8c0.1,0.2,0.5,1.2,0.5,0.9c0.1,1.2,0.9,2.2,2.2,2.2c1.2,0,2.3-1,2.2-2.2
											c-0.1-6.4-3.1-13.2-9.3-15.7c-6.3-2.6-13.2,0.7-15.9,6.8c-1.4,3.3-1,6.4-0.5,9.9c0.5,3.9,1.1,7.8,1.8,11.6
											c1.4,7.7,3.2,15.2,5.4,22.7c4.5,14.8,10.6,29.2,18.3,42.6c8.1,14.1,17.9,27.5,29.6,38.8c10.3,10,22.4,17.9,35.6,23.6
											c12.6,5.4,26,8.7,39.6,10.4c13.7,1.6,27.5,1.5,41.2-0.2c13.7-1.7,27.2-4.7,40.2-9.2c6.4-2.2,12.9-4.6,18.9-7.7
											c7.8-4,15.3-8.6,22.6-13.5c6.1-4.1,13.4-8.4,16.5-15.4c2.5-5.7,1.5-13.2-3.9-16.9
											C1108.9,1161,1104.8,1161.3,1101.4,1162.6c-1.1,0.4-1.9,1.5-1.6,2.8c0.3,1.1,1.6,2,2.8,1.6c2.9-1.1,6.2-1.4,8.4,1.3
											c1.5,1.9,2,4.4,1.8,6.7c-0.5,6.3-6.8,10.7-11.6,13.9c-6.9,4.7-14,9.2-21.3,13.3c-5.9,3.3-11.9,6-18.2,8.4
											c-24.1,9.1-50.1,13.5-75.9,11.9c-25.4-1.5-50.5-9.3-71.1-24.6c-12.3-9.1-22.4-21.2-31-33.8c-8.2-12-15.1-24.9-20.4-38.4
											c-5.4-13.6-9.2-27.8-11.6-42.2c-0.6-3.7-1.1-7.3-1.5-11c-0.3-2.4,0.5-4.8,2.2-6.6c3.8-4.1,9.8-2.7,12.7,1.7
											c1.5,2.4,2.2,5.1,2.2,7.9c1.5,0,3,0,4.5,0c-0.1-0.7-0.2-1.2-0.4-1.8c-0.1-0.2-0.5-1.2-0.5-0.9c-1.5,0.2-2.9,0.4-4.4,0.6
											c3.6,17.8,8.3,35.4,15.3,52.2c0.4,1,1.3,1.8,2.5,1.6c1-0.2,2.1-1.1,2-2.2c-0.1-0.7-0.2-1.2-0.4-1.8
											c-0.1-0.2-0.5-1.2-0.5-0.9c-0.1-1.2-0.9-2.2-2.2-2.2c-1.2,0-2.3,1-2.2,2.2c0.1,4.1,2.7,7.5,4.7,11c2.3,4,4.5,8,7,11.9
											c5.2,8.1,11.1,15.8,17.7,22.7c6.1,6.4,12.8,12.5,20.1,17.5c6.5,4.5,13.5,8,20.9,10.8c14.7,5.5,30.6,7.6,46.2,7.2
											c15.8-0.4,31.6-3.4,46.6-8.3c18.2-6,35.4-15.1,52-24.6c2.1-1.2,4.2-2.6,6.5-3.5c1.1-0.5,1.9-1.5,1.6-2.8
											C1103.9,1163.1,1102.5,1162.1,1101.4,1162.6z"/>
									</g>
								</g>
							</g>
						</g>
					</g>
				</g>
			</g>
		</g>
		<g>
			<g>
				<g>
					<g>
						<g>
							<g>
								<path d="M886.4,1039.1c-4.4-0.5-7.6,1.8-10,5.1c-2.4,3.3-3.8,7.5-4.6,10.9c1.7-16.4-6.1-35.7-22.4-41.5
									c-9.5-2.9-19.2,1-26.1,7c-16.7,16.1-12.6,44.9,4.2,58.9c8.7,7,18.2,12,29.1,12.2c3.4,0.1,6.9-0.5,10.4-1.8
									c17.9-7.1,34.1-28.7,23.8-47.9C889.7,1040.6,888.2,1039.6,886.4,1039.1z"/>
							</g>
						</g>
					</g>
				</g>
			</g>
			<g>
				<g>
					<g>
						<g>
							<g>
								<g>
									<path d="M887.3,1028.9c-3.5-0.3-7.3,0.3-10.5,1.8c-3.3,1.6-5.8,3.9-8.1,6.7c-1.9,2.3-3.3,5.1-4.5,7.8c-0.9,2-1.5,4.1-2,6.3
										c6.6,1.5,13.2,3,19.8,4.4c0.5-4.8,0.3-9.7-0.5-14.4c-0.7-4.8-2.2-9.5-4.1-13.9c-0.8-1.8-1.8-3.6-2.8-5.3
										c-1.5-2.4-3-4.7-4.8-6.8c-1.8-2.1-3.9-4-6-5.7c-2.2-1.8-4.6-3.1-7.1-4.3c-5.6-2.9-11.9-3.5-18.1-2.9
										c-3.1,0.3-6.1,1.3-9.1,2.3c-2.2,0.8-4.3,1.9-6.3,3.1c-2.6,1.6-5.2,3.3-7.3,5.4c-1.9,2-3.8,4.1-5.4,6.4
										c-1.6,2.3-2.9,4.7-4,7.2c-0.8,1.7-1.5,3.6-2,5.4c-2.5,9.1-2.8,18.8-0.2,27.9c1.3,4.5,2.9,9,5.3,13c2.4,4,5,7.8,8.4,11
										c4.1,3.9,8.7,7.4,13.7,10.1c2.9,1.6,5.8,3.1,8.9,4.2c3.1,1.1,6.3,1.9,9.6,2.4c2.9,0.5,5.9,0.6,8.8,0.4
										c1.7-0.1,3.5-0.2,5.2-0.5c2.1-0.4,4.2-1.1,6.2-1.8c4.7-1.6,9.1-4.4,13.1-7.3c4-2.9,7.6-6.6,10.7-10.4
										c3.1-3.8,5.6-8.2,7.4-12.8c3.9-10,3.7-21.5-1.2-31.1c-1.2-2.4-3-4.3-5.2-5.9c-1.5-1.1-3.3-2.1-5.2-2.6
										c-1.3-0.5-2.7-0.7-4.1-0.5c-1.4-0.1-2.7,0.2-3.9,0.9c-2.2,1.1-4.5,3.3-5.2,5.7c-0.8,2.6-0.9,5.5,0.4,8
										c1.2,2.2,3.2,4.5,5.7,5.2c0.6,0.2,1.2,0.4,1.7,0.7c-0.8-0.4-1.6-0.8-2.4-1.2c0.7,0.4,1.3,0.8,1.9,1.3
										c-0.6-0.6-1.3-1.2-1.9-1.8c0.3,0.3,0.6,0.6,0.9,1c-0.5-0.7-0.9-1.5-1.4-2.2c0.8,1.5,1.4,3,2,4.6c-0.3-0.8-0.5-1.7-0.8-2.5
										c0.7,2.2,1.1,4.4,1.2,6.7c0-0.9-0.1-1.8-0.1-2.7c0.1,2.5-0.1,4.9-0.6,7.3c0.2-0.9,0.4-1.8,0.6-2.7c-0.7,3-1.8,5.8-3.2,8.5
										c0.4-0.8,0.8-1.6,1.2-2.4c-1.7,3.3-3.9,6.3-6.4,9c0.6-0.6,1.2-1.3,1.8-1.9c-2.8,3-5.9,5.6-9.3,7.8c0.7-0.5,1.5-0.9,2.2-1.4
										c-2.7,1.7-5.6,3.3-8.7,4.3c0.8-0.3,1.7-0.5,2.5-0.8c-2.4,0.8-4.8,1.2-7.3,1.3c0.9,0,1.8-0.1,2.7-0.1
										c-3.1,0.1-6.3-0.2-9.3-0.9c0.9,0.2,1.8,0.4,2.7,0.6c-3.7-0.8-7.3-2.2-10.7-4c0.8,0.4,1.6,0.8,2.4,1.2
										c-4.3-2.3-8.6-5.1-12.2-8.4c0.6,0.6,1.3,1.2,1.9,1.8c-2.5-2.3-4.7-5-6.6-7.8c0.5,0.7,0.9,1.5,1.4,2.2
										c-2-3.2-3.6-6.6-4.8-10.1c0.3,0.8,0.5,1.7,0.8,2.5c-1.2-3.8-2-7.7-2.1-11.7c0,0.9,0.1,1.8,0.1,2.7
										c-0.2-3.6,0.1-7.1,0.9-10.6c-0.2,0.9-0.4,1.8-0.6,2.7c0.7-3.1,1.8-6.1,3.3-8.9c-0.4,0.8-0.8,1.6-1.2,2.4c1.4-2.5,3-4.9,5-7
										c-0.6,0.6-1.2,1.3-1.8,1.9c1.6-1.8,3.5-3.2,5.5-4.6c-0.7,0.5-1.5,0.9-2.2,1.4c2.4-1.5,4.9-2.7,7.5-3.6
										c-0.8,0.3-1.7,0.5-2.5,0.8c2.2-0.7,4.5-1.2,6.9-1.3c-0.9,0-1.8,0.1-2.7,0.1c2-0.1,4,0.1,6,0.5c-0.9-0.2-1.8-0.4-2.7-0.6
										c1.9,0.5,3.7,1.2,5.5,2.1c-0.8-0.4-1.6-0.8-2.4-1.2c2.3,1.2,4.4,2.7,6.3,4.5c-0.6-0.6-1.3-1.2-1.9-1.8
										c2.2,2,4.1,4.3,5.7,6.8c-0.5-0.7-0.9-1.5-1.4-2.2c2,3.1,3.5,6.4,4.6,9.8c-0.3-0.8-0.5-1.7-0.8-2.5c1.2,3.9,2,8,2.2,12.1
										c0-0.9-0.1-1.8-0.1-2.7c0.1,2.2,0,4.4-0.2,6.6c-0.3,2.5,0.7,5.6,2.4,7.5c0.6,0.6,1.3,1.2,1.9,1.8c1.1,0.8,2.3,1.4,3.7,1.5
										c0.9,0.3,1.8,0.4,2.7,0.2c1.4,0.1,2.7-0.2,3.9-0.9c0.7-0.5,1.5-0.9,2.2-1.4c1.4-1.2,2.4-2.6,3-4.3c0.6-2.9,1.6-5.6,2.9-8.2
										c-0.4,0.8-0.8,1.6-1.2,2.4c0.8-1.5,1.7-2.9,2.9-4.2c-0.6,0.6-1.2,1.3-1.8,1.9c0.8-0.8,1.6-1.5,2.5-2.1
										c-0.7,0.5-1.5,0.9-2.2,1.4c0.7-0.5,1.5-0.8,2.3-1.1c-0.8,0.3-1.7,0.5-2.5,0.8c0.8-0.2,1.6-0.4,2.4-0.4
										c-0.9,0-1.8,0.1-2.7,0.1c0.5,0,1,0,1.5,0.1c2.6,0.2,5.5-0.7,7.5-2.4c1.9-1.6,3.5-4.4,3.6-7c0.1-2.7-0.5-5.5-2.4-7.5
										C892.4,1030.5,890.1,1029.2,887.3,1028.9z"/>
								</g>
							</g>
						</g>
					</g>
				</g>
			</g>
		</g>
		<g>
			<g>
				<path class="st0" d="M599.7,898.4c-5.9,13.4-10.8,27.1-16.9,40.4c-1.2,2.5,0.7,6,3.3,6.7c3,0.9,5.5-0.6,6.7-3.3
					c6.1-13.3,11-27,16.9-40.4c1.1-2.5-0.7-6-3.3-6.7C603.5,894.3,600.9,895.7,599.7,898.4L599.7,898.4z"/>
			</g>
			<g>
				<path class="st0" d="M638.3,904.6c-5.1,14.5-13.1,27.9-16.9,42.9c-0.7,2.7,0.4,5.9,3.3,6.7c2.6,0.8,6-0.4,6.7-3.3
					c3.9-15,11.9-28.3,16.9-42.9c0.9-2.6-0.6-5.9-3.3-6.7C642.2,900.5,639.2,901.8,638.3,904.6L638.3,904.6z"/>
			</g>
		</g>
		<g>
			<g>
				<path class="st0" d="M944.7,931.3c-5.9,13.4-10.8,27.1-16.9,40.4c-1.2,2.5,0.7,6,3.3,6.7c3,0.9,5.5-0.6,6.7-3.3
					c6.1-13.3,11-27,16.9-40.4c1.1-2.5-0.7-6-3.3-6.7C948.5,927.1,945.9,928.6,944.7,931.3L944.7,931.3z"/>
			</g>
			<g>
				<path class="st0" d="M983.2,937.4c-5.1,14.5-13.1,27.9-16.9,42.9c-0.7,2.7,0.4,5.9,3.3,6.7c2.6,0.8,6-0.4,6.7-3.3
					c3.9-15,11.9-28.3,16.9-42.9c0.9-2.6-0.6-5.9-3.3-6.7C987.2,933.3,984.2,934.6,983.2,937.4L983.2,937.4z"/>
			</g>
		</g>
	</g>
	<g>
		<path class="st4" d="M1142.8,1350.1c6.1-1.2,5.5,9.7,4.3,16.7c-3.3,18.9-8.6,38.4-12.3,57.5c-3.5,17.9-7.1,35.8-11.4,53.7
			c-1.5,6.5-3.5,18.6-8.5,20.8c-3.5,1.5-6,0.4-7.3-2.3c-1.3-2.7-1.5-7-0.5-11.8c5.4-25.1,9.9-50.5,14.8-75.9
			c2.4-12.7,4.9-25.5,7.8-38.2c1.9-8.6,6.9-18.7,12.9-20.2C1142.6,1350.1,1142.7,1350.1,1142.8,1350.1z"/>
		<g>
			<path class="st4" d="M1142.7,1352.5c6.1-0.7,3,13.3,1.9,19.4c-2.1,10.9-4.7,21.7-7.1,32.5c-5.1,22.3-9,44.9-14.2,67.4
				c-0.9,3.9-1.8,7.8-2.7,11.7c-0.9,3.6-1.9,8.7-4.1,11.4c-2.3,2.8-5.7,2.6-7.3,0.3c-2.1-3.2-1.1-8.5-0.1-13.2
				c4.9-22.9,9-46,13.4-69.2c2.4-12.8,4.9-25.6,7.7-38.3C1132.2,1365.5,1136,1354.1,1142.7,1352.5c2-0.5,2.3-5.4,0.3-4.9
				c-5.6,1.3-10.5,8.8-13.3,17c-1.7,5.1-2.7,10.6-3.9,15.9c-1.6,7.3-3,14.7-4.4,22c-2.8,14.6-5.5,29.2-8.3,43.8l-2,10.2
				c-0.6,3.4-1.3,6.8-2,10.2c-1.3,6.7-3.3,13.9-4.2,20.6c-0.9,7.6,1.3,14.1,6.2,14.4c6,0.4,9.7-7,11.9-15.7
				c6.5-26,10.9-52.4,16.7-78.2c3.2-14.3,7.2-29,9.2-43.4c1.1-8.6,0.3-17.5-6-16.8C1141,1347.8,1140.7,1352.8,1142.7,1352.5z"/>
		</g>
	</g>
	<g>
		<path class="st4" d="M507.9,484.2c8.7-3.2,10.8,11.8,10.8,21.7c0,26.7-3.7,54.6-5.7,81.4c-0.9,12.6-2,25.2-3.2,37.7
			c-0.6,6.3-1.3,12.6-2,18.9l-1.1,9.4c-0.4,3.1-0.8,6.3-1.2,9.4c-1.1,9.2-1.9,26-9,29.7c-4.9,2.6-8.8,1.3-11.3-2.3
			c-1.2-1.8-2.1-4.1-2.6-6.9c-0.5-2.8-0.6-5.9-0.2-9.3c3.7-35.2,6.2-70.5,8.4-106c1.1-17.7,1.9-35.5,3.1-53.3
			c0.8-12,5.2-26.7,13.6-30.3C507.6,484.3,507.7,484.2,507.9,484.2z"/>
		<g>
			<path class="st4" d="M508.3,487.5c8.8-2.5,8.2,17.5,8,26.1c-0.4,15.4-1.8,30.7-3.2,46c-3,31.5-5,63.2-8.9,94.8
				c-0.7,5.5-1.3,11-2,16.5c-0.7,5.1-1.3,12.1-4.1,16.1c-2.9,4.2-8.1,4.3-10.8,1.3c-3.7-4.1-3.2-11.5-2.5-18.1
				c3.3-32.1,5.6-64.3,7.6-96.6c1-17.8,2.1-35.6,3.1-53.5C496.5,507.5,499,491.3,508.3,487.5c2.8-1.1,1.9-7.9-1-6.7
				c-7.9,3.2-12.9,14.6-14.9,26.2c-1.2,7.3-1.4,14.9-1.8,22.3l-1.7,30.6c-1.2,20.4-2.5,40.7-4.1,61l-0.5,7.1l-0.6,7.1l-0.6,7.1
				l-0.6,7.1c-0.8,9.3-2.6,19.6-2.6,28.8c-0.1,10.6,4.4,19.2,11.7,19c9-0.2,13.2-10.9,14.9-23.2c5.1-36.6,7.4-73.6,10.8-110.2
				c1.9-20.2,4.5-41.4,3.6-61.6c-0.6-12.1-4.4-24.1-13.5-21.5C504.5,481.6,505.5,488.3,508.3,487.5z"/>
		</g>
	</g>
</g>
</svg>
