<?xml version="1.0" encoding="UTF-8"?>
<svg id="Livello_2" data-name="Livello 2" xmlns="http://www.w3.org/2000/svg" viewBox="0 0 698 698">
  <defs>
    <style>
      .cls-1 {
        fill: #fff;
      }
    </style>
  </defs>
  <g id="Livello_1-2" data-name="Livello 1">
    <path class="cls-1" d="M425.66,0c6.63-.01,12.99,2.61,17.69,7.3l247.34,247.35c9.75,9.76,9.75,25.57,0,35.33-23.98,23.99-53.57,29.38-75.1,29.38-8.84,0-16.74-.9-22.99-1.95l-156.6,156.6c4.12,16.61,6.8,33.55,7.99,50.62,2.3,35.08-1.6,84.3-35.98,118.68-9.76,9.75-25.57,9.75-35.33,0l-141.36-141.31-159,159c-9.74,9.74-60.91,45.07-70.65,35.33-9.74-9.74,25.58-60.96,35.33-70.66l159-159L54.7,325.3c-9.75-9.76-9.75-25.57,0-35.33,34.38-34.38,83.6-38.33,118.67-35.98,17.07,1.2,34.01,3.87,50.62,8L380.59,105.43c-1.31-7.61-1.98-15.31-2-23.04,0-21.49,5.4-51.07,29.43-75.1C412.7,2.62,419.04,0,425.66,0h0Z"/>
  </g>
</svg>