<?xml version="1.0" encoding="utf-8"?>
<!-- Generator: Adobe Illustrator 27.0.0, SVG Export Plug-In . SVG Version: 6.00 Build 0)  -->
<svg version="1.1" id="Livello_1" xmlns="http://www.w3.org/2000/svg" xmlns:xlink="http://www.w3.org/1999/xlink" x="0px" y="0px"
	 viewBox="0 0 698 698" style="enable-background:new 0 0 698 698;" xml:space="preserve">
<style type="text/css">
	.st0{fill:#FFFFFF;}
	.st1{fill:#FFCC4D;}
</style>
<g>
	<path class="st1" d="M425.7,25L673,272.3c-18.2,18.2-41.3,22-57.4,22c-6.2,0-12.5-0.5-18.8-1.6l-12.7-2.1l-9.1,9.1L418.3,456.3
		l-10,10l3.4,13.7c3.8,15.2,6.2,30.7,7.3,46.3c1.3,19.2,0,36.7-3.6,52.1c-4.6,19.2-13,35.1-25.1,47.2L249,484.3l-17.7-17.7l0,0
		L213.7,449L72.4,307.6c19.4-19.4,47.9-29.2,84.8-29.2c4.7,0,9.5,0.2,14.4,0.5c15.6,1.1,31.2,3.6,46.3,7.3l13.7,3.4l10-10
		l156.6-156.6l9.2-9.2l-2.2-12.8c-1.1-6.2-1.6-12.5-1.6-18.8C403.6,66.3,407.4,43.2,425.7,25L425.7,25 M425.7,0
		C425.7,0,425.7,0,425.7,0c-6.7,0-13,2.6-17.7,7.3c-24,24-29.4,53.6-29.4,75.1c0,7.7,0.7,15.4,2,23L224,262
		c-16.6-4.1-33.5-6.8-50.6-8c-5.1-0.3-10.5-0.6-16.2-0.6c-33,0-73.2,7.2-102.5,36.5c-9.8,9.8-9.8,25.6,0,35.3L196,466.7l-159,159
		c-9.7,9.7-45.1,60.9-35.3,70.7c1.2,1.2,2.9,1.7,5.1,1.7c16.2,0,57-28.4,65.5-37l159-159l141.4,141.3c4.9,4.9,11.3,7.3,17.7,7.3
		c6.4,0,12.8-2.4,17.7-7.3c34.4-34.4,38.3-83.6,36-118.7c-1.2-17.1-3.9-34-8-50.6l156.6-156.6c6.2,1,14.1,1.9,23,1.9
		c21.5,0,51.1-5.4,75.1-29.4c9.8-9.8,9.8-25.6,0-35.3L443.3,7.3C438.7,2.6,432.3,0,425.7,0L425.7,0z"/>
</g>
</svg>
