<?xml version="1.0" encoding="utf-8"?>
<!-- Generator: Adobe Illustrator 27.0.0, SVG Export Plug-In . SVG Version: 6.00 Build 0)  -->
<svg version="1.1" id="Livello_1" xmlns="http://www.w3.org/2000/svg" xmlns:xlink="http://www.w3.org/1999/xlink" x="0px" y="0px"
	 viewBox="0 0 698 698" style="enable-background:new 0 0 698 698;" xml:space="preserve">
<style type="text/css">
	.st0{fill:#FFFFFF;}
	.st1{fill:#FFCC4D;}
</style>
<path class="st1" d="M425.7,0c6.6,0,13,2.6,17.7,7.3l247.3,247.3c9.8,9.8,9.8,25.6,0,35.3c-24,24-53.6,29.4-75.1,29.4
	c-8.8,0-16.7-0.9-23-1.9L436,474c4.1,16.6,6.8,33.5,8,50.6c2.3,35.1-1.6,84.3-36,118.7c-9.8,9.8-25.6,9.8-35.3,0L231.3,502l-159,159
	c-9.7,9.7-60.9,45.1-70.7,35.3s25.6-61,35.3-70.7l159-159L54.7,325.3c-9.8-9.8-9.8-25.6,0-35.3c34.4-34.4,83.6-38.3,118.7-36
	c17.1,1.2,34,3.9,50.6,8l156.6-156.6c-1.3-7.6-2-15.3-2-23c0-21.5,5.4-51.1,29.4-75.1C412.7,2.6,419,0,425.7,0L425.7,0z"/>
</svg>
