<?xml version="1.0" encoding="UTF-8"?>
<svg id="Livello_2" data-name="Livello 2" xmlns="http://www.w3.org/2000/svg" viewBox="0 0 800 800">
  <defs>
    <style>
      .cls-1 {
        fill: #fff;
      }
    </style>
  </defs>
  <g id="Livello_1-2" data-name="Livello 1">
    <path class="cls-1" d="M470.25,52.5c-20.65-70-119.85-70-140.5,0l-5,17c-11.42,38.78-52.11,60.96-90.89,49.55-4.98-1.47-9.8-3.46-14.36-5.95l-15.5-8.5c-64.15-34.9-134.3,35.25-99.35,99.35l8.45,15.55c22.3,41,1.15,92.05-43.6,105.25l-17,5c-70,20.65-70,119.85,0,140.5l17,5c38.78,11.42,60.96,52.11,49.55,90.89-1.47,4.98-3.46,9.8-5.95,14.36l-8.5,15.5c-34.9,64.15,35.25,134.3,99.35,99.35l15.55-8.45c35.5-19.35,79.96-6.25,99.3,29.24,2.49,4.56,4.48,9.37,5.95,14.36l5,17c20.65,70,119.85,70,140.5,0l5-17c11.42-38.78,52.11-60.96,90.89-49.55,4.98,1.47,9.8,3.46,14.36,5.95l15.5,8.5c64.15,34.9,134.3-35.25,99.35-99.35l-8.45-15.55c-19.35-35.5-6.25-79.96,29.24-99.3,4.56-2.49,9.37-4.48,14.36-5.95l17-5c70-20.65,70-119.85,0-140.5l-17-5c-38.78-11.42-60.96-52.11-49.55-90.89,1.47-4.98,3.46-9.8,5.95-14.36l8.5-15.5c34.9-64.15-35.25-134.3-99.35-99.35l-15.55,8.45c-35.5,19.35-79.96,6.25-99.3-29.24-2.49-4.56-4.48-9.37-5.95-14.36l-5-17h0Zm-70.25,494c-80.91,0-146.5-65.59-146.5-146.5s65.59-146.5,146.5-146.5c80.88,.03,146.42,65.63,146.39,146.51-.03,80.83-65.55,146.35-146.39,146.39v.1Z"/>
  </g>
</svg>