<?xml version="1.0" encoding="utf-8"?>
<!-- Generator: Adobe Illustrator 27.0.0, SVG Export Plug-In . SVG Version: 6.00 Build 0)  -->
<svg version="1.1" id="_x32_" xmlns="http://www.w3.org/2000/svg" xmlns:xlink="http://www.w3.org/1999/xlink" x="0px" y="0px"
	 viewBox="0 0 800 800" style="enable-background:new 0 0 800 800;" xml:space="preserve">
<style type="text/css">
	.st0{fill:#FFFFFF;}
</style>
<g>
	<path class="st0" d="M654.7,507.4c-4.4-3.3-10.4-3.7-15.2-1c-4.8,2.7-7.6,8-7.1,13.5l3.8,44c-18.7-2.7-35.6-6.9-51.1-12.4
		c-20.8-7.4-39.4-17.1-56.6-28.8c-25.8-17.6-48.8-39.9-70.4-65.7c-8.3-9.9-16.3-20.3-24.3-31c-4.4,6.5-8.6,12.9-12.6,19
		c-15.2,23-31.5,47.1-49.4,70.8c16.2,20,33.8,39.5,53.7,57.6c30.9,28.3,67.3,53.1,110.3,70.6c30.7,12.5,64.5,21,101.6,24.9
		l-4.9,56.3c-0.5,5.5,2.3,10.8,7.1,13.5c4.8,2.7,10.8,2.3,15.2-1l139.7-103.8c3.6-2.7,5.7-6.8,5.7-11.3c0-4.4-2.1-8.6-5.7-11.3
		L654.7,507.4z"/>
	<path class="st0" d="M120.6,248.5c20.8,7.4,39.4,17.1,56.6,28.8c25.9,17.6,48.8,39.9,70.4,65.7c8.3,9.9,16.3,20.3,24.3,31.1
		c4.4-6.5,8.6-12.9,12.6-19c15.2-23,31.4-47.1,49.4-70.8c-16.2-20-33.8-39.5-53.7-57.6c-30.9-28.3-67.3-53.2-110.3-70.6
		c-43-17.5-92.2-27.3-147.8-27.3H0v104h22.1C60.9,232.8,92.8,238.7,120.6,248.5z"/>
	<path class="st0" d="M450.8,351.8c14.2-17.7,29-34,44.7-48.3c23.6-21.5,49.2-38.8,79.3-51c18.4-7.4,38.5-13.1,61.4-16.4l-3.8,44
		c-0.5,5.5,2.3,10.8,7.1,13.5c4.8,2.7,10.8,2.3,15.2-1l139.7-103.8c3.6-2.7,5.7-6.8,5.7-11.3c0-4.4-2.1-8.6-5.7-11.3L654.7,62.4
		c-4.4-3.3-10.4-3.7-15.2-1c-4.8,2.7-7.6,8-7.1,13.5l4.9,56.3c-31.3,3.3-60.4,9.8-87.1,19.3c-29.6,10.5-56.3,24.5-80.3,40.8
		c-36,24.5-65.8,54-91.7,85c-25.9,31-48.1,63.6-68.8,95.1c-17.8,27.1-35.6,53.2-54.6,76.8c-14.2,17.7-29,33.9-44.7,48.3
		c-23.6,21.5-49.2,38.8-79.3,51c-30.1,12.2-65.1,19.6-108.7,19.6H0v104h22.1c49.4,0,93.8-7.7,133.3-21.8
		c29.6-10.5,56.3-24.5,80.3-40.8c36-24.5,65.8-54,91.7-85c25.9-31,48.1-63.6,68.8-95.1C414,401.5,431.9,375.4,450.8,351.8z"/>
</g>
</svg>
