<?xml version="1.0" encoding="utf-8"?>
<!-- Generator: Adobe Illustrator 27.0.0, SVG Export Plug-In . SVG Version: 6.00 Build 0)  -->
<svg version="1.1" id="Livello_1" xmlns="http://www.w3.org/2000/svg" xmlns:xlink="http://www.w3.org/1999/xlink" x="0px" y="0px"
	 viewBox="0 0 690 690" style="enable-background:new 0 0 690 690;" xml:space="preserve">
<style type="text/css">
	.st0{fill:#FFCC4D;}
	.st1{fill:#FFFFFF;}
	.st2{fill:none;stroke:#FFCC4D;stroke-width:20;stroke-miterlimit:10;}
	.st3{fill:#FFCC4D;stroke:#FFCC4D;stroke-width:20;stroke-miterlimit:10;}
	.st4{fill:#FFCC4D;stroke:#FFCC4D;stroke-width:20.3036;stroke-miterlimit:10;}
	.st5{fill:#FFFFFF;stroke:#FFFFFF;stroke-width:20;stroke-miterlimit:10;}
</style>
<path class="st2" d="M10,177.5C10,85,85,10,177.5,10h335C605,10,680,85,680,177.5v335C680,605,605,680,512.5,680h-335
	C85,680,10,605,10,512.5V177.5z"/>
<path class="st3" d="M220,532.5c0,0-31.2,0-31.2-31.2s31.2-125,156.2-125s156.2,93.8,156.2,125S470,532.5,470,532.5H220z M345,345
	c51.8,0,93.8-42,93.8-93.8s-42-93.8-93.8-93.8s-93.8,42-93.8,93.8S293.2,345,345,345z"/>
</svg>
