<?xml version="1.0" encoding="utf-8"?>
<!-- Generator: Adobe Illustrator 27.0.0, SVG Export Plug-In . SVG Version: 6.00 Build 0)  -->
<svg version="1.1" id="Livello_1" xmlns="http://www.w3.org/2000/svg" xmlns:xlink="http://www.w3.org/1999/xlink" x="0px" y="0px"
	 viewBox="0 0 690.3 690.3" style="enable-background:new 0 0 690.3 690.3;" xml:space="preserve">
<style type="text/css">
	.st0{fill:#FFCC4D;}
	.st1{fill:#FFFFFF;}
	.st2{fill:none;stroke:#FFCC4D;stroke-width:20;stroke-miterlimit:10;}
	.st3{fill:#FFCC4D;stroke:#FFCC4D;stroke-width:20;stroke-miterlimit:10;}
	.st4{fill:#FFCC4D;stroke:#FFCC4D;stroke-width:20.3036;stroke-miterlimit:10;}
	.st5{fill:#FFFFFF;stroke:#FFFFFF;stroke-width:20;stroke-miterlimit:10;}
</style>
<path class="st4" d="M10.2,177.7c0-92.5,75-167.5,167.5-167.5h335c92.5,0,167.5,75,167.5,167.5v335c0,92.5-75,167.5-167.5,167.5
	h-335c-92.5,0-167.5-75-167.5-167.5V177.7z"/>
<path class="st5" d="M220.2,532.7c0,0-31.2,0-31.2-31.3s31.2-125,156.2-125s156.2,93.8,156.2,125s-31.2,31.3-31.2,31.3H220.2z
	 M345.2,345.2c51.8,0,93.8-42,93.8-93.7s-42-93.8-93.8-93.8s-93.7,42-93.7,93.8S293.4,345.2,345.2,345.2z"/>
</svg>
